%
M48
M72
T01C0.0315
T02C0.0320
T03C0.0394
%
T01
X11680Y10271
X12680Y10271
X13680Y10271
X13680Y13521
X12680Y13521
X11680Y13521
X12058Y18790
X12058Y22767
X18082Y22767
X19066Y22727
X19066Y18790
X18082Y18790
T02
X27930Y12180
X28930Y12180
T03
X7680Y4930
X10180Y6430
X11180Y6430
X12180Y6430
X13180Y6430
X14180Y6430
X15180Y6430
X16180Y6430
X17180Y6430
X18180Y6430
X19180Y6430
X19180Y7430
X18180Y7430
X17180Y7430
X16180Y7430
X15180Y7430
X14180Y7430
X13180Y7430
X12180Y7430
X11180Y7430
X10180Y7430
X9680Y13180
X19680Y16680
X23180Y10180
X28180Y7430
X29180Y7430
X30180Y7430
X31180Y7430
X32180Y7430
X32180Y6430
X31180Y6430
X30180Y6430
X29180Y6430
X28180Y6430
X29180Y4930
X23180Y5680
X19180Y25430
X19180Y26430
X18180Y26430
X17180Y26430
X17180Y25430
X18180Y25430
X16180Y25430
X15180Y25430
X15180Y26430
X16180Y26430
X14180Y26430
X14180Y25430
X13180Y25430
X12180Y25430
X12180Y26430
X13180Y26430
X11180Y26430
X10180Y26430
X10180Y25430
X11180Y25430
X28180Y25430
X28180Y26430
X29180Y26430
X30180Y26430
X30180Y25430
X29180Y25430
X31180Y25430
X32180Y25430
X32180Y26430
X31180Y26430
M30
