G75*
%MOIN*%
%OFA0B0*%
%FSLAX25Y25*%
%IPPOS*%
%LPD*%
%AMOC8*
5,1,8,0,0,1.08239X$1,22.5*
%
%ADD10C,0.06000*%
%ADD11R,0.07887X0.07887*%
%ADD12OC8,0.07887*%
%ADD13R,0.06737X0.06737*%
%ADD14C,0.06737*%
%ADD15C,0.06312*%
%ADD16OC8,0.06312*%
%ADD17C,0.06706*%
D10*
X0279300Y0121800D03*
X0289300Y0121800D03*
D11*
X0116800Y0135206D03*
X0116800Y0102706D03*
D12*
X0126800Y0102706D03*
X0136800Y0102706D03*
X0136800Y0135206D03*
X0126800Y0135206D03*
D13*
X0101800Y0064300D03*
X0101800Y0254300D03*
D14*
X0111800Y0254300D03*
X0111800Y0264300D03*
X0101800Y0264300D03*
X0121800Y0264300D03*
X0131800Y0264300D03*
X0131800Y0254300D03*
X0121800Y0254300D03*
X0141800Y0254300D03*
X0141800Y0264300D03*
X0151800Y0264300D03*
X0161800Y0264300D03*
X0161800Y0254300D03*
X0151800Y0254300D03*
X0171800Y0254300D03*
X0181800Y0254300D03*
X0181800Y0264300D03*
X0171800Y0264300D03*
X0191800Y0264300D03*
X0191800Y0254300D03*
X0281800Y0254300D03*
X0281800Y0264300D03*
X0291800Y0264300D03*
X0301800Y0264300D03*
X0301800Y0254300D03*
X0291800Y0254300D03*
X0311800Y0254300D03*
X0321800Y0254300D03*
X0321800Y0264300D03*
X0311800Y0264300D03*
X0311800Y0074300D03*
X0321800Y0074300D03*
X0321800Y0064300D03*
X0311800Y0064300D03*
X0301800Y0064300D03*
X0291800Y0064300D03*
X0281800Y0064300D03*
X0281800Y0074300D03*
X0291800Y0074300D03*
X0301800Y0074300D03*
X0191800Y0074300D03*
X0181800Y0074300D03*
X0171800Y0074300D03*
X0161800Y0074300D03*
X0151800Y0074300D03*
X0141800Y0074300D03*
X0131800Y0074300D03*
X0121800Y0074300D03*
X0111800Y0074300D03*
X0101800Y0074300D03*
X0111800Y0064300D03*
X0121800Y0064300D03*
X0131800Y0064300D03*
X0141800Y0064300D03*
X0151800Y0064300D03*
X0161800Y0064300D03*
X0171800Y0064300D03*
X0181800Y0064300D03*
X0191800Y0064300D03*
D15*
X0190658Y0187902D03*
X0180816Y0187902D03*
X0180816Y0227666D03*
X0190658Y0227272D03*
X0120580Y0187902D03*
D16*
X0120580Y0227666D03*
D17*
X0076800Y0049300D03*
X0096800Y0131800D03*
X0196800Y0166800D03*
X0231800Y0101800D03*
X0231800Y0056800D03*
X0291800Y0049300D03*
M02*
