G75*
%MOIN*%
%OFA0B0*%
%FSLAX25Y25*%
%IPPOS*%
%LPD*%
%AMOC8*
5,1,8,0,0,1.08239X$1,22.5*
%
%ADD10C,0.05200*%
%ADD11R,0.07087X0.07087*%
%ADD12OC8,0.07087*%
%ADD13R,0.05937X0.05937*%
%ADD14C,0.05937*%
%ADD15C,0.05512*%
%ADD16OC8,0.05512*%
%ADD17C,0.01600*%
%ADD18C,0.05906*%
%ADD19C,0.02000*%
D10*
X0279300Y0121800D03*
X0289300Y0121800D03*
D11*
X0116800Y0135206D03*
X0116800Y0102706D03*
D12*
X0126800Y0102706D03*
X0136800Y0102706D03*
X0136800Y0135206D03*
X0126800Y0135206D03*
D13*
X0101800Y0064300D03*
X0101800Y0254300D03*
D14*
X0111800Y0254300D03*
X0111800Y0264300D03*
X0101800Y0264300D03*
X0121800Y0264300D03*
X0131800Y0264300D03*
X0131800Y0254300D03*
X0121800Y0254300D03*
X0141800Y0254300D03*
X0141800Y0264300D03*
X0151800Y0264300D03*
X0161800Y0264300D03*
X0161800Y0254300D03*
X0151800Y0254300D03*
X0171800Y0254300D03*
X0181800Y0254300D03*
X0181800Y0264300D03*
X0171800Y0264300D03*
X0191800Y0264300D03*
X0191800Y0254300D03*
X0281800Y0254300D03*
X0281800Y0264300D03*
X0291800Y0264300D03*
X0301800Y0264300D03*
X0301800Y0254300D03*
X0291800Y0254300D03*
X0311800Y0254300D03*
X0321800Y0254300D03*
X0321800Y0264300D03*
X0311800Y0264300D03*
X0311800Y0074300D03*
X0321800Y0074300D03*
X0321800Y0064300D03*
X0311800Y0064300D03*
X0301800Y0064300D03*
X0291800Y0064300D03*
X0281800Y0064300D03*
X0281800Y0074300D03*
X0291800Y0074300D03*
X0301800Y0074300D03*
X0191800Y0074300D03*
X0181800Y0074300D03*
X0171800Y0074300D03*
X0161800Y0074300D03*
X0151800Y0074300D03*
X0141800Y0074300D03*
X0131800Y0074300D03*
X0121800Y0074300D03*
X0111800Y0074300D03*
X0101800Y0074300D03*
X0111800Y0064300D03*
X0121800Y0064300D03*
X0131800Y0064300D03*
X0141800Y0064300D03*
X0151800Y0064300D03*
X0161800Y0064300D03*
X0171800Y0064300D03*
X0181800Y0064300D03*
X0191800Y0064300D03*
D15*
X0190658Y0187902D03*
X0180816Y0187902D03*
X0180816Y0227666D03*
X0190658Y0227272D03*
X0120580Y0187902D03*
D16*
X0120580Y0227666D03*
D17*
X0021600Y0281961D02*
X0021600Y0016600D01*
X0366331Y0016600D01*
X0366331Y0281961D01*
X0021600Y0281961D01*
X0021600Y0281948D02*
X0366331Y0281948D01*
X0366331Y0280350D02*
X0021600Y0280350D01*
X0021600Y0278751D02*
X0366331Y0278751D01*
X0366331Y0277153D02*
X0021600Y0277153D01*
X0021600Y0275554D02*
X0366331Y0275554D01*
X0366331Y0273956D02*
X0021600Y0273956D01*
X0021600Y0272357D02*
X0366331Y0272357D01*
X0366331Y0270759D02*
X0021600Y0270759D01*
X0021600Y0269160D02*
X0098502Y0269160D01*
X0098532Y0269190D02*
X0096910Y0267568D01*
X0096031Y0265447D01*
X0096031Y0263153D01*
X0096910Y0261032D01*
X0097991Y0259951D01*
X0097245Y0259642D01*
X0096458Y0258855D01*
X0096031Y0257825D01*
X0096031Y0250775D01*
X0096458Y0249745D01*
X0097245Y0248958D01*
X0098275Y0248531D01*
X0105325Y0248531D01*
X0106355Y0248958D01*
X0107142Y0249745D01*
X0107451Y0250491D01*
X0108532Y0249410D01*
X0110653Y0248531D01*
X0112947Y0248531D01*
X0115068Y0249410D01*
X0116690Y0251032D01*
X0116800Y0251297D01*
X0116910Y0251032D01*
X0118532Y0249410D01*
X0120653Y0248531D01*
X0122947Y0248531D01*
X0125068Y0249410D01*
X0126690Y0251032D01*
X0126800Y0251297D01*
X0126910Y0251032D01*
X0128532Y0249410D01*
X0130653Y0248531D01*
X0132947Y0248531D01*
X0135068Y0249410D01*
X0136690Y0251032D01*
X0136800Y0251297D01*
X0136910Y0251032D01*
X0138532Y0249410D01*
X0140653Y0248531D01*
X0142947Y0248531D01*
X0145068Y0249410D01*
X0146690Y0251032D01*
X0146800Y0251297D01*
X0146910Y0251032D01*
X0148532Y0249410D01*
X0150653Y0248531D01*
X0152947Y0248531D01*
X0155068Y0249410D01*
X0156690Y0251032D01*
X0156800Y0251297D01*
X0156910Y0251032D01*
X0158532Y0249410D01*
X0160653Y0248531D01*
X0162947Y0248531D01*
X0165068Y0249410D01*
X0166690Y0251032D01*
X0166800Y0251297D01*
X0166910Y0251032D01*
X0168532Y0249410D01*
X0170653Y0248531D01*
X0172947Y0248531D01*
X0175068Y0249410D01*
X0176690Y0251032D01*
X0176800Y0251297D01*
X0176910Y0251032D01*
X0178532Y0249410D01*
X0180653Y0248531D01*
X0182947Y0248531D01*
X0185068Y0249410D01*
X0186690Y0251032D01*
X0186800Y0251297D01*
X0186910Y0251032D01*
X0188532Y0249410D01*
X0190653Y0248531D01*
X0192947Y0248531D01*
X0195068Y0249410D01*
X0196690Y0251032D01*
X0197568Y0253153D01*
X0197568Y0255447D01*
X0196690Y0257568D01*
X0195068Y0259190D01*
X0194803Y0259300D01*
X0195068Y0259410D01*
X0196690Y0261032D01*
X0197568Y0263153D01*
X0197568Y0265447D01*
X0196690Y0267568D01*
X0195068Y0269190D01*
X0192947Y0270068D01*
X0190653Y0270068D01*
X0188532Y0269190D01*
X0186910Y0267568D01*
X0186800Y0267303D01*
X0186690Y0267568D01*
X0185068Y0269190D01*
X0182947Y0270068D01*
X0180653Y0270068D01*
X0178532Y0269190D01*
X0176910Y0267568D01*
X0176800Y0267303D01*
X0176690Y0267568D01*
X0175068Y0269190D01*
X0172947Y0270068D01*
X0170653Y0270068D01*
X0168532Y0269190D01*
X0166910Y0267568D01*
X0166800Y0267303D01*
X0166690Y0267568D01*
X0165068Y0269190D01*
X0162947Y0270068D01*
X0160653Y0270068D01*
X0158532Y0269190D01*
X0156910Y0267568D01*
X0156800Y0267303D01*
X0156690Y0267568D01*
X0155068Y0269190D01*
X0152947Y0270068D01*
X0150653Y0270068D01*
X0148532Y0269190D01*
X0146910Y0267568D01*
X0146800Y0267303D01*
X0146690Y0267568D01*
X0145068Y0269190D01*
X0142947Y0270068D01*
X0140653Y0270068D01*
X0138532Y0269190D01*
X0136910Y0267568D01*
X0136800Y0267303D01*
X0136690Y0267568D01*
X0135068Y0269190D01*
X0132947Y0270068D01*
X0130653Y0270068D01*
X0128532Y0269190D01*
X0126910Y0267568D01*
X0126800Y0267303D01*
X0126690Y0267568D01*
X0125068Y0269190D01*
X0122947Y0270068D01*
X0120653Y0270068D01*
X0118532Y0269190D01*
X0116910Y0267568D01*
X0116800Y0267303D01*
X0116690Y0267568D01*
X0115068Y0269190D01*
X0112947Y0270068D01*
X0110653Y0270068D01*
X0108532Y0269190D01*
X0106910Y0267568D01*
X0106800Y0267303D01*
X0106690Y0267568D01*
X0105068Y0269190D01*
X0102947Y0270068D01*
X0100653Y0270068D01*
X0098532Y0269190D01*
X0096907Y0267562D02*
X0021600Y0267562D01*
X0021600Y0265963D02*
X0096245Y0265963D01*
X0096031Y0264365D02*
X0021600Y0264365D01*
X0021600Y0262766D02*
X0096191Y0262766D01*
X0096854Y0261168D02*
X0021600Y0261168D01*
X0021600Y0259569D02*
X0097172Y0259569D01*
X0096092Y0257971D02*
X0021600Y0257971D01*
X0021600Y0256372D02*
X0096031Y0256372D01*
X0096031Y0254774D02*
X0021600Y0254774D01*
X0021600Y0253175D02*
X0096031Y0253175D01*
X0096031Y0251577D02*
X0021600Y0251577D01*
X0021600Y0249978D02*
X0096361Y0249978D01*
X0107239Y0249978D02*
X0107964Y0249978D01*
X0115636Y0249978D02*
X0117964Y0249978D01*
X0125636Y0249978D02*
X0127964Y0249978D01*
X0135636Y0249978D02*
X0137964Y0249978D01*
X0145636Y0249978D02*
X0147964Y0249978D01*
X0155636Y0249978D02*
X0157964Y0249978D01*
X0165636Y0249978D02*
X0167964Y0249978D01*
X0175636Y0249978D02*
X0177964Y0249978D01*
X0185636Y0249978D02*
X0187964Y0249978D01*
X0195636Y0249978D02*
X0277964Y0249978D01*
X0278532Y0249410D02*
X0276910Y0251032D01*
X0276031Y0253153D01*
X0276031Y0255447D01*
X0276910Y0257568D01*
X0278532Y0259190D01*
X0278797Y0259300D01*
X0278532Y0259410D01*
X0276910Y0261032D01*
X0276031Y0263153D01*
X0276031Y0265447D01*
X0276910Y0267568D01*
X0278532Y0269190D01*
X0280653Y0270068D01*
X0282947Y0270068D01*
X0285068Y0269190D01*
X0286690Y0267568D01*
X0286800Y0267303D01*
X0286910Y0267568D01*
X0288532Y0269190D01*
X0290653Y0270068D01*
X0292947Y0270068D01*
X0295068Y0269190D01*
X0296690Y0267568D01*
X0296800Y0267303D01*
X0296910Y0267568D01*
X0298532Y0269190D01*
X0300653Y0270068D01*
X0302947Y0270068D01*
X0305068Y0269190D01*
X0306690Y0267568D01*
X0306800Y0267303D01*
X0306910Y0267568D01*
X0308532Y0269190D01*
X0310653Y0270068D01*
X0312947Y0270068D01*
X0315068Y0269190D01*
X0316690Y0267568D01*
X0316800Y0267303D01*
X0316910Y0267568D01*
X0318532Y0269190D01*
X0320653Y0270068D01*
X0322947Y0270068D01*
X0325068Y0269190D01*
X0326690Y0267568D01*
X0327568Y0265447D01*
X0327568Y0263153D01*
X0326690Y0261032D01*
X0325068Y0259410D01*
X0324803Y0259300D01*
X0325068Y0259190D01*
X0326690Y0257568D01*
X0327568Y0255447D01*
X0327568Y0253153D01*
X0326690Y0251032D01*
X0325068Y0249410D01*
X0322947Y0248531D01*
X0320653Y0248531D01*
X0318532Y0249410D01*
X0316910Y0251032D01*
X0316800Y0251297D01*
X0316690Y0251032D01*
X0315068Y0249410D01*
X0312947Y0248531D01*
X0310653Y0248531D01*
X0308532Y0249410D01*
X0306910Y0251032D01*
X0306800Y0251297D01*
X0306690Y0251032D01*
X0305068Y0249410D01*
X0302947Y0248531D01*
X0300653Y0248531D01*
X0298532Y0249410D01*
X0296910Y0251032D01*
X0296800Y0251297D01*
X0296690Y0251032D01*
X0295068Y0249410D01*
X0292947Y0248531D01*
X0290653Y0248531D01*
X0288532Y0249410D01*
X0286910Y0251032D01*
X0286800Y0251297D01*
X0286690Y0251032D01*
X0285068Y0249410D01*
X0282947Y0248531D01*
X0280653Y0248531D01*
X0278532Y0249410D01*
X0276684Y0251577D02*
X0196916Y0251577D01*
X0197568Y0253175D02*
X0276031Y0253175D01*
X0276031Y0254774D02*
X0197568Y0254774D01*
X0197185Y0256372D02*
X0276415Y0256372D01*
X0277313Y0257971D02*
X0196287Y0257971D01*
X0195227Y0259569D02*
X0278373Y0259569D01*
X0276854Y0261168D02*
X0196746Y0261168D01*
X0197408Y0262766D02*
X0276191Y0262766D01*
X0276031Y0264365D02*
X0197568Y0264365D01*
X0197355Y0265963D02*
X0276245Y0265963D01*
X0276907Y0267562D02*
X0196693Y0267562D01*
X0195098Y0269160D02*
X0278502Y0269160D01*
X0285098Y0269160D02*
X0288502Y0269160D01*
X0286907Y0267562D02*
X0286693Y0267562D01*
X0295098Y0269160D02*
X0298502Y0269160D01*
X0296907Y0267562D02*
X0296693Y0267562D01*
X0305098Y0269160D02*
X0308502Y0269160D01*
X0306907Y0267562D02*
X0306693Y0267562D01*
X0315098Y0269160D02*
X0318502Y0269160D01*
X0316907Y0267562D02*
X0316693Y0267562D01*
X0325098Y0269160D02*
X0366331Y0269160D01*
X0366331Y0267562D02*
X0326693Y0267562D01*
X0327355Y0265963D02*
X0366331Y0265963D01*
X0366331Y0264365D02*
X0327568Y0264365D01*
X0327408Y0262766D02*
X0366331Y0262766D01*
X0366331Y0261168D02*
X0326746Y0261168D01*
X0325227Y0259569D02*
X0366331Y0259569D01*
X0366331Y0257971D02*
X0326287Y0257971D01*
X0327185Y0256372D02*
X0366331Y0256372D01*
X0366331Y0254774D02*
X0327568Y0254774D01*
X0327568Y0253175D02*
X0366331Y0253175D01*
X0366331Y0251577D02*
X0326916Y0251577D01*
X0325636Y0249978D02*
X0366331Y0249978D01*
X0366331Y0248380D02*
X0021600Y0248380D01*
X0021600Y0246781D02*
X0366331Y0246781D01*
X0366331Y0245183D02*
X0021600Y0245183D01*
X0021600Y0243584D02*
X0366331Y0243584D01*
X0366331Y0241986D02*
X0021600Y0241986D01*
X0021600Y0240387D02*
X0366331Y0240387D01*
X0366331Y0238789D02*
X0021600Y0238789D01*
X0021600Y0237190D02*
X0366331Y0237190D01*
X0366331Y0235592D02*
X0021600Y0235592D01*
X0021600Y0233993D02*
X0366331Y0233993D01*
X0366331Y0232395D02*
X0183919Y0232395D01*
X0183963Y0232376D02*
X0181921Y0233222D01*
X0179711Y0233222D01*
X0177669Y0232376D01*
X0176106Y0230813D01*
X0175260Y0228771D01*
X0175260Y0226561D01*
X0176106Y0224519D01*
X0177669Y0222956D01*
X0179711Y0222110D01*
X0181921Y0222110D01*
X0183963Y0222956D01*
X0185526Y0224519D01*
X0186219Y0226192D01*
X0186436Y0225524D01*
X0186762Y0224885D01*
X0187183Y0224304D01*
X0187690Y0223797D01*
X0188270Y0223376D01*
X0188909Y0223050D01*
X0189591Y0222829D01*
X0190300Y0222717D01*
X0190658Y0222717D01*
X0190658Y0227272D01*
X0190658Y0227272D01*
X0190658Y0222717D01*
X0191017Y0222717D01*
X0191725Y0222829D01*
X0192407Y0223050D01*
X0193046Y0223376D01*
X0193626Y0223797D01*
X0194133Y0224304D01*
X0194555Y0224885D01*
X0194880Y0225524D01*
X0195102Y0226206D01*
X0195214Y0226914D01*
X0195214Y0227272D01*
X0190658Y0227272D01*
X0190658Y0227272D01*
X0190658Y0227273D02*
X0190658Y0231828D01*
X0190300Y0231828D01*
X0189591Y0231716D01*
X0188909Y0231495D01*
X0188270Y0231169D01*
X0187690Y0230747D01*
X0187183Y0230240D01*
X0186762Y0229660D01*
X0186436Y0229021D01*
X0186362Y0228794D01*
X0185526Y0230813D01*
X0183963Y0232376D01*
X0185533Y0230796D02*
X0187757Y0230796D01*
X0186526Y0229198D02*
X0186195Y0229198D01*
X0186139Y0226001D02*
X0186281Y0226001D01*
X0187112Y0224402D02*
X0185409Y0224402D01*
X0183595Y0222803D02*
X0189751Y0222803D01*
X0190658Y0222803D02*
X0190658Y0222803D01*
X0191566Y0222803D02*
X0366331Y0222803D01*
X0366331Y0221205D02*
X0021600Y0221205D01*
X0021600Y0222803D02*
X0178037Y0222803D01*
X0176223Y0224402D02*
X0123758Y0224402D01*
X0122467Y0223110D02*
X0125135Y0225779D01*
X0125135Y0227666D01*
X0120580Y0227666D01*
X0120580Y0227666D01*
X0125135Y0227666D01*
X0125135Y0229553D01*
X0122467Y0232222D01*
X0120580Y0232222D01*
X0120580Y0227666D01*
X0120580Y0223110D01*
X0122467Y0223110D01*
X0120579Y0223110D02*
X0120579Y0227666D01*
X0116024Y0227666D01*
X0116024Y0225779D01*
X0118692Y0223110D01*
X0120579Y0223110D01*
X0120579Y0224402D02*
X0120580Y0224402D01*
X0120579Y0226001D02*
X0120580Y0226001D01*
X0120579Y0227599D02*
X0120580Y0227599D01*
X0120579Y0227666D02*
X0120580Y0227666D01*
X0120579Y0227666D01*
X0120579Y0227666D01*
X0116024Y0227666D01*
X0116024Y0229553D01*
X0118692Y0232222D01*
X0120579Y0232222D01*
X0120579Y0227666D01*
X0120579Y0229198D02*
X0120580Y0229198D01*
X0120579Y0230796D02*
X0120580Y0230796D01*
X0123893Y0230796D02*
X0176099Y0230796D01*
X0175436Y0229198D02*
X0125135Y0229198D01*
X0125135Y0227599D02*
X0175260Y0227599D01*
X0175492Y0226001D02*
X0125135Y0226001D01*
X0117401Y0224402D02*
X0021600Y0224402D01*
X0021600Y0226001D02*
X0116024Y0226001D01*
X0116024Y0227599D02*
X0021600Y0227599D01*
X0021600Y0229198D02*
X0116024Y0229198D01*
X0117266Y0230796D02*
X0021600Y0230796D01*
X0021600Y0232395D02*
X0177713Y0232395D01*
X0190658Y0231828D02*
X0190658Y0227273D01*
X0190658Y0227273D01*
X0190658Y0227272D02*
X0195214Y0227272D01*
X0195214Y0227631D01*
X0195102Y0228339D01*
X0194880Y0229021D01*
X0194555Y0229660D01*
X0194133Y0230240D01*
X0193626Y0230747D01*
X0193046Y0231169D01*
X0192407Y0231495D01*
X0191725Y0231716D01*
X0191017Y0231828D01*
X0190658Y0231828D01*
X0190658Y0230796D02*
X0190658Y0230796D01*
X0190658Y0229198D02*
X0190658Y0229198D01*
X0190658Y0227599D02*
X0190658Y0227599D01*
X0190658Y0226001D02*
X0190658Y0226001D01*
X0190658Y0224402D02*
X0190658Y0224402D01*
X0194204Y0224402D02*
X0366331Y0224402D01*
X0366331Y0226001D02*
X0195035Y0226001D01*
X0195214Y0227599D02*
X0366331Y0227599D01*
X0366331Y0229198D02*
X0194791Y0229198D01*
X0193559Y0230796D02*
X0366331Y0230796D01*
X0366331Y0219606D02*
X0021600Y0219606D01*
X0021600Y0218008D02*
X0366331Y0218008D01*
X0366331Y0216409D02*
X0021600Y0216409D01*
X0021600Y0214811D02*
X0366331Y0214811D01*
X0366331Y0213212D02*
X0021600Y0213212D01*
X0021600Y0211614D02*
X0366331Y0211614D01*
X0366331Y0210015D02*
X0021600Y0210015D01*
X0021600Y0208417D02*
X0366331Y0208417D01*
X0366331Y0206818D02*
X0021600Y0206818D01*
X0021600Y0205220D02*
X0366331Y0205220D01*
X0366331Y0203621D02*
X0021600Y0203621D01*
X0021600Y0202023D02*
X0366331Y0202023D01*
X0366331Y0200424D02*
X0021600Y0200424D01*
X0021600Y0198826D02*
X0366331Y0198826D01*
X0366331Y0197227D02*
X0021600Y0197227D01*
X0021600Y0195629D02*
X0366331Y0195629D01*
X0366331Y0194030D02*
X0021600Y0194030D01*
X0021600Y0192432D02*
X0117252Y0192432D01*
X0117432Y0192612D02*
X0115869Y0191050D01*
X0115024Y0189007D01*
X0115024Y0186797D01*
X0115869Y0184755D01*
X0117432Y0183192D01*
X0119474Y0182346D01*
X0121685Y0182346D01*
X0123727Y0183192D01*
X0125290Y0184755D01*
X0126135Y0186797D01*
X0126135Y0189007D01*
X0125290Y0191050D01*
X0123727Y0192612D01*
X0121685Y0193458D01*
X0119474Y0193458D01*
X0117432Y0192612D01*
X0115780Y0190833D02*
X0021600Y0190833D01*
X0021600Y0189235D02*
X0115118Y0189235D01*
X0115024Y0187636D02*
X0021600Y0187636D01*
X0021600Y0186038D02*
X0115338Y0186038D01*
X0116185Y0184439D02*
X0021600Y0184439D01*
X0021600Y0182841D02*
X0118281Y0182841D01*
X0122878Y0182841D02*
X0178517Y0182841D01*
X0177669Y0183192D02*
X0179711Y0182346D01*
X0181921Y0182346D01*
X0183963Y0183192D01*
X0185526Y0184755D01*
X0185737Y0185265D01*
X0185948Y0184755D01*
X0187511Y0183192D01*
X0189553Y0182346D01*
X0191763Y0182346D01*
X0193805Y0183192D01*
X0195368Y0184755D01*
X0196214Y0186797D01*
X0196214Y0189007D01*
X0195368Y0191050D01*
X0193805Y0192612D01*
X0191763Y0193458D01*
X0189553Y0193458D01*
X0187511Y0192612D01*
X0185948Y0191050D01*
X0185737Y0190540D01*
X0185526Y0191050D01*
X0183963Y0192612D01*
X0181921Y0193458D01*
X0179711Y0193458D01*
X0177669Y0192612D01*
X0176106Y0191050D01*
X0175260Y0189007D01*
X0175260Y0186797D01*
X0176106Y0184755D01*
X0177669Y0183192D01*
X0176422Y0184439D02*
X0124974Y0184439D01*
X0125821Y0186038D02*
X0175574Y0186038D01*
X0175260Y0187636D02*
X0126135Y0187636D01*
X0126041Y0189235D02*
X0175354Y0189235D01*
X0176016Y0190833D02*
X0125379Y0190833D01*
X0123907Y0192432D02*
X0177488Y0192432D01*
X0184144Y0192432D02*
X0187330Y0192432D01*
X0185859Y0190833D02*
X0185615Y0190833D01*
X0185210Y0184439D02*
X0186264Y0184439D01*
X0188360Y0182841D02*
X0183114Y0182841D01*
X0192957Y0182841D02*
X0366331Y0182841D01*
X0366331Y0184439D02*
X0195052Y0184439D01*
X0195900Y0186038D02*
X0366331Y0186038D01*
X0366331Y0187636D02*
X0196214Y0187636D01*
X0196120Y0189235D02*
X0366331Y0189235D01*
X0366331Y0190833D02*
X0195458Y0190833D01*
X0193986Y0192432D02*
X0366331Y0192432D01*
X0366331Y0181242D02*
X0021600Y0181242D01*
X0021600Y0179644D02*
X0366331Y0179644D01*
X0366331Y0178045D02*
X0021600Y0178045D01*
X0021600Y0176447D02*
X0366331Y0176447D01*
X0366331Y0174848D02*
X0021600Y0174848D01*
X0021600Y0173250D02*
X0366331Y0173250D01*
X0366331Y0171651D02*
X0200084Y0171651D01*
X0200059Y0171677D02*
X0197944Y0172553D01*
X0195656Y0172553D01*
X0193541Y0171677D01*
X0192464Y0170600D01*
X0096044Y0170600D01*
X0094647Y0170021D01*
X0093579Y0168953D01*
X0093000Y0167556D01*
X0093000Y0136136D01*
X0091923Y0135059D01*
X0091047Y0132944D01*
X0091047Y0130656D01*
X0091923Y0128541D01*
X0093541Y0126923D01*
X0095656Y0126047D01*
X0097944Y0126047D01*
X0100059Y0126923D01*
X0101677Y0128541D01*
X0102553Y0130656D01*
X0102553Y0132944D01*
X0101677Y0135059D01*
X0100600Y0136136D01*
X0100600Y0163000D01*
X0192464Y0163000D01*
X0193541Y0161923D01*
X0195656Y0161047D01*
X0197944Y0161047D01*
X0200059Y0161923D01*
X0201677Y0163541D01*
X0202553Y0165656D01*
X0202553Y0167944D01*
X0201677Y0170059D01*
X0200059Y0171677D01*
X0201679Y0170053D02*
X0366331Y0170053D01*
X0366331Y0168454D02*
X0202342Y0168454D01*
X0202553Y0166856D02*
X0366331Y0166856D01*
X0366331Y0165257D02*
X0202388Y0165257D01*
X0201726Y0163659D02*
X0366331Y0163659D01*
X0366331Y0162060D02*
X0200196Y0162060D01*
X0193404Y0162060D02*
X0100600Y0162060D01*
X0100600Y0160462D02*
X0366331Y0160462D01*
X0366331Y0158863D02*
X0100600Y0158863D01*
X0100600Y0157265D02*
X0366331Y0157265D01*
X0366331Y0155666D02*
X0100600Y0155666D01*
X0100600Y0154068D02*
X0366331Y0154068D01*
X0366331Y0152469D02*
X0100600Y0152469D01*
X0100600Y0150870D02*
X0366331Y0150870D01*
X0366331Y0149272D02*
X0100600Y0149272D01*
X0100600Y0147673D02*
X0366331Y0147673D01*
X0366331Y0146075D02*
X0100600Y0146075D01*
X0100600Y0144476D02*
X0366331Y0144476D01*
X0366331Y0142878D02*
X0100600Y0142878D01*
X0100600Y0141279D02*
X0112049Y0141279D01*
X0111671Y0141123D02*
X0110883Y0140335D01*
X0110457Y0139306D01*
X0110457Y0131105D01*
X0110883Y0130076D01*
X0111671Y0129288D01*
X0112700Y0128862D01*
X0120900Y0128862D01*
X0121929Y0129288D01*
X0122717Y0130076D01*
X0123143Y0131105D01*
X0123143Y0131306D01*
X0124587Y0129862D01*
X0126800Y0129862D01*
X0129013Y0129862D01*
X0131093Y0131942D01*
X0134173Y0128862D01*
X0139427Y0128862D01*
X0143143Y0132578D01*
X0143143Y0137833D01*
X0139427Y0141549D01*
X0134173Y0141549D01*
X0131093Y0138469D01*
X0129013Y0140549D01*
X0126800Y0140549D01*
X0126800Y0135206D01*
X0126800Y0140549D01*
X0124587Y0140549D01*
X0123143Y0139105D01*
X0123143Y0139306D01*
X0122717Y0140335D01*
X0121929Y0141123D01*
X0120900Y0141549D01*
X0112700Y0141549D01*
X0111671Y0141123D01*
X0110612Y0139681D02*
X0100600Y0139681D01*
X0100600Y0138082D02*
X0110457Y0138082D01*
X0110457Y0136484D02*
X0100600Y0136484D01*
X0101749Y0134885D02*
X0110457Y0134885D01*
X0110457Y0133287D02*
X0102411Y0133287D01*
X0102553Y0131688D02*
X0110457Y0131688D01*
X0110877Y0130090D02*
X0102318Y0130090D01*
X0101627Y0128491D02*
X0366331Y0128491D01*
X0366331Y0126893D02*
X0291116Y0126893D01*
X0290374Y0127200D02*
X0288226Y0127200D01*
X0286241Y0126378D01*
X0284722Y0124859D01*
X0284300Y0123840D01*
X0283878Y0124859D01*
X0282359Y0126378D01*
X0280374Y0127200D01*
X0278226Y0127200D01*
X0276241Y0126378D01*
X0274722Y0124859D01*
X0273900Y0122874D01*
X0273900Y0120726D01*
X0274722Y0118741D01*
X0276241Y0117222D01*
X0278226Y0116400D01*
X0280374Y0116400D01*
X0282359Y0117222D01*
X0283878Y0118741D01*
X0284300Y0119760D01*
X0284722Y0118741D01*
X0286241Y0117222D01*
X0288226Y0116400D01*
X0290374Y0116400D01*
X0292359Y0117222D01*
X0293878Y0118741D01*
X0294700Y0120726D01*
X0294700Y0122874D01*
X0293878Y0124859D01*
X0292359Y0126378D01*
X0290374Y0127200D01*
X0287484Y0126893D02*
X0281116Y0126893D01*
X0283442Y0125294D02*
X0285158Y0125294D01*
X0284656Y0118900D02*
X0283944Y0118900D01*
X0282438Y0117302D02*
X0286161Y0117302D01*
X0292438Y0117302D02*
X0366331Y0117302D01*
X0366331Y0118900D02*
X0293944Y0118900D01*
X0294606Y0120499D02*
X0366331Y0120499D01*
X0366331Y0122097D02*
X0294700Y0122097D01*
X0294360Y0123696D02*
X0366331Y0123696D01*
X0366331Y0125294D02*
X0293442Y0125294D01*
X0277484Y0126893D02*
X0099986Y0126893D01*
X0093614Y0126893D02*
X0021600Y0126893D01*
X0021600Y0128491D02*
X0091973Y0128491D01*
X0091282Y0130090D02*
X0021600Y0130090D01*
X0021600Y0131688D02*
X0091047Y0131688D01*
X0091189Y0133287D02*
X0021600Y0133287D01*
X0021600Y0134885D02*
X0091851Y0134885D01*
X0093000Y0136484D02*
X0021600Y0136484D01*
X0021600Y0138082D02*
X0093000Y0138082D01*
X0093000Y0139681D02*
X0021600Y0139681D01*
X0021600Y0141279D02*
X0093000Y0141279D01*
X0093000Y0142878D02*
X0021600Y0142878D01*
X0021600Y0144476D02*
X0093000Y0144476D01*
X0093000Y0146075D02*
X0021600Y0146075D01*
X0021600Y0147673D02*
X0093000Y0147673D01*
X0093000Y0149272D02*
X0021600Y0149272D01*
X0021600Y0150870D02*
X0093000Y0150870D01*
X0093000Y0152469D02*
X0021600Y0152469D01*
X0021600Y0154068D02*
X0093000Y0154068D01*
X0093000Y0155666D02*
X0021600Y0155666D01*
X0021600Y0157265D02*
X0093000Y0157265D01*
X0093000Y0158863D02*
X0021600Y0158863D01*
X0021600Y0160462D02*
X0093000Y0160462D01*
X0093000Y0162060D02*
X0021600Y0162060D01*
X0021600Y0163659D02*
X0093000Y0163659D01*
X0093000Y0165257D02*
X0021600Y0165257D01*
X0021600Y0166856D02*
X0093000Y0166856D01*
X0093372Y0168454D02*
X0021600Y0168454D01*
X0021600Y0170053D02*
X0094723Y0170053D01*
X0121551Y0141279D02*
X0133903Y0141279D01*
X0132305Y0139681D02*
X0129881Y0139681D01*
X0126800Y0139681D02*
X0126800Y0139681D01*
X0126800Y0138082D02*
X0126800Y0138082D01*
X0126800Y0136484D02*
X0126800Y0136484D01*
X0126800Y0135206D02*
X0126800Y0135206D01*
X0126800Y0135205D02*
X0126800Y0129862D01*
X0126800Y0135205D01*
X0126800Y0135205D01*
X0126800Y0134885D02*
X0126800Y0134885D01*
X0126800Y0133287D02*
X0126800Y0133287D01*
X0126800Y0131688D02*
X0126800Y0131688D01*
X0126800Y0130090D02*
X0126800Y0130090D01*
X0129241Y0130090D02*
X0132945Y0130090D01*
X0131346Y0131688D02*
X0130839Y0131688D01*
X0124359Y0130090D02*
X0122723Y0130090D01*
X0122988Y0139681D02*
X0123719Y0139681D01*
X0139697Y0141279D02*
X0366331Y0141279D01*
X0366331Y0139681D02*
X0141295Y0139681D01*
X0142894Y0138082D02*
X0366331Y0138082D01*
X0366331Y0136484D02*
X0143143Y0136484D01*
X0143143Y0134885D02*
X0366331Y0134885D01*
X0366331Y0133287D02*
X0143143Y0133287D01*
X0142254Y0131688D02*
X0366331Y0131688D01*
X0366331Y0130090D02*
X0140655Y0130090D01*
X0139427Y0109049D02*
X0134173Y0109049D01*
X0131093Y0105969D01*
X0129013Y0108049D01*
X0126800Y0108049D01*
X0126800Y0102706D01*
X0126800Y0108049D01*
X0124587Y0108049D01*
X0123143Y0106605D01*
X0123143Y0106806D01*
X0122717Y0107835D01*
X0121929Y0108623D01*
X0120900Y0109049D01*
X0112700Y0109049D01*
X0111671Y0108623D01*
X0110883Y0107835D01*
X0110457Y0106806D01*
X0110457Y0098605D01*
X0110883Y0097576D01*
X0111671Y0096788D01*
X0112700Y0096362D01*
X0120900Y0096362D01*
X0121929Y0096788D01*
X0122717Y0097576D01*
X0123143Y0098605D01*
X0123143Y0098806D01*
X0124587Y0097362D01*
X0126800Y0097362D01*
X0129013Y0097362D01*
X0131093Y0099442D01*
X0134173Y0096362D01*
X0139427Y0096362D01*
X0143143Y0100078D01*
X0143143Y0105333D01*
X0139427Y0109049D01*
X0140766Y0107711D02*
X0366331Y0107711D01*
X0366331Y0109309D02*
X0021600Y0109309D01*
X0021600Y0107711D02*
X0110832Y0107711D01*
X0110457Y0106112D02*
X0021600Y0106112D01*
X0021600Y0104514D02*
X0110457Y0104514D01*
X0110457Y0102915D02*
X0021600Y0102915D01*
X0021600Y0101317D02*
X0110457Y0101317D01*
X0110457Y0099718D02*
X0021600Y0099718D01*
X0021600Y0098120D02*
X0110658Y0098120D01*
X0112316Y0096521D02*
X0021600Y0096521D01*
X0021600Y0094923D02*
X0228000Y0094923D01*
X0228000Y0096521D02*
X0139586Y0096521D01*
X0141185Y0098120D02*
X0227345Y0098120D01*
X0226923Y0098541D02*
X0228000Y0097464D01*
X0228000Y0061136D01*
X0226923Y0060059D01*
X0226047Y0057944D01*
X0226047Y0055656D01*
X0226923Y0053541D01*
X0227364Y0053100D01*
X0081136Y0053100D01*
X0080059Y0054177D01*
X0077944Y0055053D01*
X0075656Y0055053D01*
X0073541Y0054177D01*
X0071923Y0052559D01*
X0071047Y0050444D01*
X0071047Y0048156D01*
X0071923Y0046041D01*
X0073541Y0044423D01*
X0075656Y0043547D01*
X0077944Y0043547D01*
X0080059Y0044423D01*
X0081136Y0045500D01*
X0287464Y0045500D01*
X0288541Y0044423D01*
X0290656Y0043547D01*
X0292944Y0043547D01*
X0295059Y0044423D01*
X0296677Y0046041D01*
X0297553Y0048156D01*
X0297553Y0050444D01*
X0296677Y0052559D01*
X0295059Y0054177D01*
X0292944Y0055053D01*
X0290656Y0055053D01*
X0288541Y0054177D01*
X0287464Y0053100D01*
X0236236Y0053100D01*
X0236677Y0053541D01*
X0237553Y0055656D01*
X0237553Y0057944D01*
X0236677Y0060059D01*
X0235600Y0061136D01*
X0235600Y0097464D01*
X0236677Y0098541D01*
X0237553Y0100656D01*
X0237553Y0102944D01*
X0236677Y0105059D01*
X0235059Y0106677D01*
X0232944Y0107553D01*
X0230656Y0107553D01*
X0228541Y0106677D01*
X0226923Y0105059D01*
X0226047Y0102944D01*
X0226047Y0100656D01*
X0226923Y0098541D01*
X0226436Y0099718D02*
X0142783Y0099718D01*
X0143143Y0101317D02*
X0226047Y0101317D01*
X0226047Y0102915D02*
X0143143Y0102915D01*
X0143143Y0104514D02*
X0226697Y0104514D01*
X0227977Y0106112D02*
X0142364Y0106112D01*
X0132834Y0107711D02*
X0129351Y0107711D01*
X0130950Y0106112D02*
X0131236Y0106112D01*
X0126800Y0106112D02*
X0126800Y0106112D01*
X0126800Y0104514D02*
X0126800Y0104514D01*
X0126800Y0102915D02*
X0126800Y0102915D01*
X0126800Y0102706D02*
X0126800Y0102706D01*
X0126800Y0102705D02*
X0126800Y0097362D01*
X0126800Y0102705D01*
X0126800Y0102705D01*
X0126800Y0101317D02*
X0126800Y0101317D01*
X0126800Y0099718D02*
X0126800Y0099718D01*
X0126800Y0098120D02*
X0126800Y0098120D01*
X0129771Y0098120D02*
X0132415Y0098120D01*
X0134014Y0096521D02*
X0121284Y0096521D01*
X0122942Y0098120D02*
X0123829Y0098120D01*
X0124249Y0107711D02*
X0122768Y0107711D01*
X0126800Y0107711D02*
X0126800Y0107711D01*
X0122947Y0080068D02*
X0120653Y0080068D01*
X0118532Y0079190D01*
X0116910Y0077568D01*
X0116800Y0077303D01*
X0116690Y0077568D01*
X0115068Y0079190D01*
X0112947Y0080068D01*
X0110653Y0080068D01*
X0108532Y0079190D01*
X0106910Y0077568D01*
X0106261Y0076002D01*
X0106219Y0076130D01*
X0105878Y0076799D01*
X0105437Y0077406D01*
X0104906Y0077937D01*
X0104299Y0078378D01*
X0103630Y0078719D01*
X0102917Y0078951D01*
X0102175Y0079068D01*
X0101984Y0079068D01*
X0101984Y0074484D01*
X0101616Y0074484D01*
X0101616Y0074116D01*
X0101984Y0074116D01*
X0101984Y0069531D01*
X0102175Y0069531D01*
X0102917Y0069649D01*
X0103630Y0069881D01*
X0104299Y0070222D01*
X0104906Y0070663D01*
X0105437Y0071194D01*
X0105878Y0071801D01*
X0106219Y0072470D01*
X0106261Y0072598D01*
X0106910Y0071032D01*
X0108532Y0069410D01*
X0108797Y0069300D01*
X0108532Y0069190D01*
X0106910Y0067568D01*
X0106568Y0066744D01*
X0106568Y0067505D01*
X0106446Y0067963D01*
X0106209Y0068374D01*
X0105874Y0068709D01*
X0105463Y0068946D01*
X0105005Y0069068D01*
X0101984Y0069068D01*
X0101984Y0064484D01*
X0101616Y0064484D01*
X0101616Y0064116D01*
X0101984Y0064116D01*
X0101984Y0059531D01*
X0105005Y0059531D01*
X0105463Y0059654D01*
X0105874Y0059891D01*
X0106209Y0060226D01*
X0106446Y0060637D01*
X0106568Y0061095D01*
X0106568Y0061856D01*
X0106910Y0061032D01*
X0108532Y0059410D01*
X0110653Y0058531D01*
X0112947Y0058531D01*
X0115068Y0059410D01*
X0116690Y0061032D01*
X0116800Y0061297D01*
X0116910Y0061032D01*
X0118532Y0059410D01*
X0120653Y0058531D01*
X0122947Y0058531D01*
X0125068Y0059410D01*
X0126690Y0061032D01*
X0126800Y0061297D01*
X0126910Y0061032D01*
X0128532Y0059410D01*
X0130653Y0058531D01*
X0132947Y0058531D01*
X0135068Y0059410D01*
X0136690Y0061032D01*
X0136800Y0061297D01*
X0136910Y0061032D01*
X0138532Y0059410D01*
X0140653Y0058531D01*
X0142947Y0058531D01*
X0145068Y0059410D01*
X0146690Y0061032D01*
X0146800Y0061297D01*
X0146910Y0061032D01*
X0148532Y0059410D01*
X0150653Y0058531D01*
X0152947Y0058531D01*
X0155068Y0059410D01*
X0156690Y0061032D01*
X0156800Y0061297D01*
X0156910Y0061032D01*
X0158532Y0059410D01*
X0160653Y0058531D01*
X0162947Y0058531D01*
X0165068Y0059410D01*
X0166690Y0061032D01*
X0166800Y0061297D01*
X0166910Y0061032D01*
X0168532Y0059410D01*
X0170653Y0058531D01*
X0172947Y0058531D01*
X0175068Y0059410D01*
X0176690Y0061032D01*
X0176800Y0061297D01*
X0176910Y0061032D01*
X0178532Y0059410D01*
X0180653Y0058531D01*
X0182947Y0058531D01*
X0185068Y0059410D01*
X0186690Y0061032D01*
X0186800Y0061297D01*
X0186910Y0061032D01*
X0188532Y0059410D01*
X0190653Y0058531D01*
X0192947Y0058531D01*
X0195068Y0059410D01*
X0196690Y0061032D01*
X0197568Y0063153D01*
X0197568Y0065447D01*
X0196690Y0067568D01*
X0195068Y0069190D01*
X0194803Y0069300D01*
X0195068Y0069410D01*
X0196690Y0071032D01*
X0197568Y0073153D01*
X0197568Y0075447D01*
X0196690Y0077568D01*
X0195068Y0079190D01*
X0192947Y0080068D01*
X0190653Y0080068D01*
X0188532Y0079190D01*
X0186910Y0077568D01*
X0186800Y0077303D01*
X0186690Y0077568D01*
X0185068Y0079190D01*
X0182947Y0080068D01*
X0180653Y0080068D01*
X0178532Y0079190D01*
X0176910Y0077568D01*
X0176800Y0077303D01*
X0176690Y0077568D01*
X0175068Y0079190D01*
X0172947Y0080068D01*
X0170653Y0080068D01*
X0168532Y0079190D01*
X0166910Y0077568D01*
X0166800Y0077303D01*
X0166690Y0077568D01*
X0165068Y0079190D01*
X0162947Y0080068D01*
X0160653Y0080068D01*
X0158532Y0079190D01*
X0156910Y0077568D01*
X0156800Y0077303D01*
X0156690Y0077568D01*
X0155068Y0079190D01*
X0152947Y0080068D01*
X0150653Y0080068D01*
X0148532Y0079190D01*
X0146910Y0077568D01*
X0146800Y0077303D01*
X0146690Y0077568D01*
X0145068Y0079190D01*
X0142947Y0080068D01*
X0140653Y0080068D01*
X0138532Y0079190D01*
X0136910Y0077568D01*
X0136800Y0077303D01*
X0136690Y0077568D01*
X0135068Y0079190D01*
X0132947Y0080068D01*
X0130653Y0080068D01*
X0128532Y0079190D01*
X0126910Y0077568D01*
X0126800Y0077303D01*
X0126690Y0077568D01*
X0125068Y0079190D01*
X0122947Y0080068D01*
X0125320Y0078937D02*
X0128280Y0078937D01*
X0126815Y0077339D02*
X0126785Y0077339D01*
X0118280Y0078937D02*
X0115320Y0078937D01*
X0116785Y0077339D02*
X0116815Y0077339D01*
X0108280Y0078937D02*
X0102958Y0078937D01*
X0101984Y0078937D02*
X0101616Y0078937D01*
X0101616Y0079068D02*
X0101425Y0079068D01*
X0100683Y0078951D01*
X0099970Y0078719D01*
X0099301Y0078378D01*
X0098694Y0077937D01*
X0098163Y0077406D01*
X0097722Y0076799D01*
X0097381Y0076130D01*
X0097149Y0075417D01*
X0097031Y0074675D01*
X0097031Y0074484D01*
X0101616Y0074484D01*
X0101616Y0079068D01*
X0100642Y0078937D02*
X0021600Y0078937D01*
X0021600Y0077339D02*
X0098114Y0077339D01*
X0097254Y0075740D02*
X0021600Y0075740D01*
X0021600Y0074142D02*
X0101616Y0074142D01*
X0101616Y0074116D02*
X0097031Y0074116D01*
X0097031Y0073925D01*
X0097149Y0073183D01*
X0097381Y0072470D01*
X0097722Y0071801D01*
X0098163Y0071194D01*
X0098694Y0070663D01*
X0099301Y0070222D01*
X0099970Y0069881D01*
X0100683Y0069649D01*
X0101425Y0069531D01*
X0101616Y0069531D01*
X0101616Y0074116D01*
X0101616Y0072543D02*
X0101984Y0072543D01*
X0101984Y0070945D02*
X0101616Y0070945D01*
X0101616Y0069068D02*
X0098595Y0069068D01*
X0098137Y0068946D01*
X0097726Y0068709D01*
X0097391Y0068374D01*
X0097154Y0067963D01*
X0097031Y0067505D01*
X0097031Y0064484D01*
X0101616Y0064484D01*
X0101616Y0069068D01*
X0101616Y0067748D02*
X0101984Y0067748D01*
X0101984Y0066149D02*
X0101616Y0066149D01*
X0101616Y0064551D02*
X0101984Y0064551D01*
X0101616Y0064116D02*
X0097031Y0064116D01*
X0097031Y0061095D01*
X0097154Y0060637D01*
X0097391Y0060226D01*
X0097726Y0059891D01*
X0098137Y0059654D01*
X0098595Y0059531D01*
X0101616Y0059531D01*
X0101616Y0064116D01*
X0101616Y0062952D02*
X0101984Y0062952D01*
X0101984Y0061354D02*
X0101616Y0061354D01*
X0101616Y0059755D02*
X0101984Y0059755D01*
X0105639Y0059755D02*
X0108187Y0059755D01*
X0106777Y0061354D02*
X0106568Y0061354D01*
X0106504Y0067748D02*
X0107090Y0067748D01*
X0108685Y0069346D02*
X0021600Y0069346D01*
X0021600Y0067748D02*
X0097096Y0067748D01*
X0097031Y0066149D02*
X0021600Y0066149D01*
X0021600Y0064551D02*
X0097031Y0064551D01*
X0097031Y0062952D02*
X0021600Y0062952D01*
X0021600Y0061354D02*
X0097031Y0061354D01*
X0097961Y0059755D02*
X0021600Y0059755D01*
X0021600Y0058157D02*
X0226135Y0058157D01*
X0226047Y0056558D02*
X0021600Y0056558D01*
X0021600Y0054960D02*
X0075431Y0054960D01*
X0078169Y0054960D02*
X0226335Y0054960D01*
X0227103Y0053361D02*
X0080874Y0053361D01*
X0072726Y0053361D02*
X0021600Y0053361D01*
X0021600Y0051763D02*
X0071593Y0051763D01*
X0071047Y0050164D02*
X0021600Y0050164D01*
X0021600Y0048566D02*
X0071047Y0048566D01*
X0071540Y0046967D02*
X0021600Y0046967D01*
X0021600Y0045369D02*
X0072596Y0045369D01*
X0075117Y0043770D02*
X0021600Y0043770D01*
X0021600Y0042172D02*
X0366331Y0042172D01*
X0366331Y0043770D02*
X0293483Y0043770D01*
X0296004Y0045369D02*
X0366331Y0045369D01*
X0366331Y0046967D02*
X0297060Y0046967D01*
X0297553Y0048566D02*
X0366331Y0048566D01*
X0366331Y0050164D02*
X0297553Y0050164D01*
X0297007Y0051763D02*
X0366331Y0051763D01*
X0366331Y0053361D02*
X0295874Y0053361D01*
X0293169Y0054960D02*
X0366331Y0054960D01*
X0366331Y0056558D02*
X0237553Y0056558D01*
X0237465Y0058157D02*
X0366331Y0058157D01*
X0366331Y0059755D02*
X0323244Y0059755D01*
X0322917Y0059649D02*
X0323630Y0059881D01*
X0324299Y0060222D01*
X0324906Y0060663D01*
X0325437Y0061194D01*
X0325878Y0061801D01*
X0326219Y0062470D01*
X0326451Y0063183D01*
X0326568Y0063925D01*
X0326568Y0064116D01*
X0321984Y0064116D01*
X0321984Y0059531D01*
X0322175Y0059531D01*
X0322917Y0059649D01*
X0321984Y0059755D02*
X0321616Y0059755D01*
X0321616Y0059531D02*
X0321616Y0064116D01*
X0321984Y0064116D01*
X0321984Y0064484D01*
X0326568Y0064484D01*
X0326568Y0064675D01*
X0326451Y0065417D01*
X0326219Y0066130D01*
X0325878Y0066799D01*
X0325437Y0067406D01*
X0324906Y0067937D01*
X0324299Y0068378D01*
X0323630Y0068719D01*
X0322917Y0068951D01*
X0322175Y0069068D01*
X0321984Y0069068D01*
X0321984Y0064484D01*
X0321616Y0064484D01*
X0321616Y0064116D01*
X0317031Y0064116D01*
X0317031Y0063925D01*
X0317149Y0063183D01*
X0317381Y0062470D01*
X0317722Y0061801D01*
X0318163Y0061194D01*
X0318694Y0060663D01*
X0319301Y0060222D01*
X0319970Y0059881D01*
X0320683Y0059649D01*
X0321425Y0059531D01*
X0321616Y0059531D01*
X0320356Y0059755D02*
X0313244Y0059755D01*
X0312917Y0059649D02*
X0313630Y0059881D01*
X0314299Y0060222D01*
X0314906Y0060663D01*
X0315437Y0061194D01*
X0315878Y0061801D01*
X0316219Y0062470D01*
X0316451Y0063183D01*
X0316568Y0063925D01*
X0316568Y0064116D01*
X0311984Y0064116D01*
X0311984Y0059531D01*
X0312175Y0059531D01*
X0312917Y0059649D01*
X0311984Y0059755D02*
X0311616Y0059755D01*
X0311616Y0059531D02*
X0311616Y0064116D01*
X0311984Y0064116D01*
X0311984Y0064484D01*
X0311616Y0064484D01*
X0311616Y0069068D01*
X0311425Y0069068D01*
X0310683Y0068951D01*
X0309970Y0068719D01*
X0309301Y0068378D01*
X0308694Y0067937D01*
X0308163Y0067406D01*
X0307722Y0066799D01*
X0307381Y0066130D01*
X0307339Y0066002D01*
X0306690Y0067568D01*
X0305068Y0069190D01*
X0304803Y0069300D01*
X0305068Y0069410D01*
X0306690Y0071032D01*
X0307339Y0072598D01*
X0307381Y0072470D01*
X0307722Y0071801D01*
X0308163Y0071194D01*
X0308694Y0070663D01*
X0309301Y0070222D01*
X0309970Y0069881D01*
X0310683Y0069649D01*
X0311425Y0069531D01*
X0311616Y0069531D01*
X0311616Y0074116D01*
X0311984Y0074116D01*
X0311984Y0069531D01*
X0312175Y0069531D01*
X0312917Y0069649D01*
X0313630Y0069881D01*
X0314299Y0070222D01*
X0314906Y0070663D01*
X0315437Y0071194D01*
X0315878Y0071801D01*
X0316219Y0072470D01*
X0316451Y0073183D01*
X0316568Y0073925D01*
X0316568Y0074116D01*
X0311984Y0074116D01*
X0311984Y0074484D01*
X0316568Y0074484D01*
X0316568Y0074675D01*
X0316451Y0075417D01*
X0316219Y0076130D01*
X0315878Y0076799D01*
X0315437Y0077406D01*
X0314906Y0077937D01*
X0314299Y0078378D01*
X0313630Y0078719D01*
X0312917Y0078951D01*
X0312175Y0079068D01*
X0311984Y0079068D01*
X0311984Y0074484D01*
X0311616Y0074484D01*
X0311616Y0079068D01*
X0311425Y0079068D01*
X0310683Y0078951D01*
X0309970Y0078719D01*
X0309301Y0078378D01*
X0308694Y0077937D01*
X0308163Y0077406D01*
X0307722Y0076799D01*
X0307381Y0076130D01*
X0307339Y0076002D01*
X0306690Y0077568D01*
X0305068Y0079190D01*
X0302947Y0080068D01*
X0300653Y0080068D01*
X0298532Y0079190D01*
X0296910Y0077568D01*
X0296800Y0077303D01*
X0296690Y0077568D01*
X0295068Y0079190D01*
X0292947Y0080068D01*
X0290653Y0080068D01*
X0288532Y0079190D01*
X0286910Y0077568D01*
X0286800Y0077303D01*
X0286690Y0077568D01*
X0285068Y0079190D01*
X0282947Y0080068D01*
X0280653Y0080068D01*
X0278532Y0079190D01*
X0276910Y0077568D01*
X0276031Y0075447D01*
X0276031Y0073153D01*
X0276910Y0071032D01*
X0278532Y0069410D01*
X0278797Y0069300D01*
X0278532Y0069190D01*
X0276910Y0067568D01*
X0276031Y0065447D01*
X0276031Y0063153D01*
X0276910Y0061032D01*
X0278532Y0059410D01*
X0280653Y0058531D01*
X0282947Y0058531D01*
X0285068Y0059410D01*
X0286690Y0061032D01*
X0286800Y0061297D01*
X0286910Y0061032D01*
X0288532Y0059410D01*
X0290653Y0058531D01*
X0292947Y0058531D01*
X0295068Y0059410D01*
X0296690Y0061032D01*
X0296800Y0061297D01*
X0296910Y0061032D01*
X0298532Y0059410D01*
X0300653Y0058531D01*
X0302947Y0058531D01*
X0305068Y0059410D01*
X0306690Y0061032D01*
X0307339Y0062598D01*
X0307381Y0062470D01*
X0307722Y0061801D01*
X0308163Y0061194D01*
X0308694Y0060663D01*
X0309301Y0060222D01*
X0309970Y0059881D01*
X0310683Y0059649D01*
X0311425Y0059531D01*
X0311616Y0059531D01*
X0310356Y0059755D02*
X0305413Y0059755D01*
X0306823Y0061354D02*
X0308046Y0061354D01*
X0311616Y0061354D02*
X0311984Y0061354D01*
X0311984Y0062952D02*
X0311616Y0062952D01*
X0311984Y0064484D02*
X0316568Y0064484D01*
X0316568Y0064675D01*
X0316451Y0065417D01*
X0316219Y0066130D01*
X0315878Y0066799D01*
X0315437Y0067406D01*
X0314906Y0067937D01*
X0314299Y0068378D01*
X0313630Y0068719D01*
X0312917Y0068951D01*
X0312175Y0069068D01*
X0311984Y0069068D01*
X0311984Y0064484D01*
X0311984Y0064551D02*
X0311616Y0064551D01*
X0311616Y0066149D02*
X0311984Y0066149D01*
X0311984Y0067748D02*
X0311616Y0067748D01*
X0308504Y0067748D02*
X0306510Y0067748D01*
X0307278Y0066149D02*
X0307391Y0066149D01*
X0304915Y0069346D02*
X0366331Y0069346D01*
X0366331Y0067748D02*
X0325096Y0067748D01*
X0326209Y0066149D02*
X0366331Y0066149D01*
X0366331Y0064551D02*
X0326568Y0064551D01*
X0326376Y0062952D02*
X0366331Y0062952D01*
X0366331Y0061354D02*
X0325554Y0061354D01*
X0321984Y0061354D02*
X0321616Y0061354D01*
X0321616Y0062952D02*
X0321984Y0062952D01*
X0321616Y0064484D02*
X0317031Y0064484D01*
X0317031Y0064675D01*
X0317149Y0065417D01*
X0317381Y0066130D01*
X0317722Y0066799D01*
X0318163Y0067406D01*
X0318694Y0067937D01*
X0319301Y0068378D01*
X0319970Y0068719D01*
X0320683Y0068951D01*
X0321425Y0069068D01*
X0321616Y0069068D01*
X0321616Y0064484D01*
X0321616Y0064551D02*
X0321984Y0064551D01*
X0321984Y0066149D02*
X0321616Y0066149D01*
X0321616Y0067748D02*
X0321984Y0067748D01*
X0321984Y0069531D02*
X0322175Y0069531D01*
X0322917Y0069649D01*
X0323630Y0069881D01*
X0324299Y0070222D01*
X0324906Y0070663D01*
X0325437Y0071194D01*
X0325878Y0071801D01*
X0326219Y0072470D01*
X0326451Y0073183D01*
X0326568Y0073925D01*
X0326568Y0074116D01*
X0321984Y0074116D01*
X0321984Y0069531D01*
X0321616Y0069531D02*
X0321616Y0074116D01*
X0321984Y0074116D01*
X0321984Y0074484D01*
X0326568Y0074484D01*
X0326568Y0074675D01*
X0326451Y0075417D01*
X0326219Y0076130D01*
X0325878Y0076799D01*
X0325437Y0077406D01*
X0324906Y0077937D01*
X0324299Y0078378D01*
X0323630Y0078719D01*
X0322917Y0078951D01*
X0322175Y0079068D01*
X0321984Y0079068D01*
X0321984Y0074484D01*
X0321616Y0074484D01*
X0321616Y0074116D01*
X0317031Y0074116D01*
X0317031Y0073925D01*
X0317149Y0073183D01*
X0317381Y0072470D01*
X0317722Y0071801D01*
X0318163Y0071194D01*
X0318694Y0070663D01*
X0319301Y0070222D01*
X0319970Y0069881D01*
X0320683Y0069649D01*
X0321425Y0069531D01*
X0321616Y0069531D01*
X0321616Y0070945D02*
X0321984Y0070945D01*
X0321984Y0072543D02*
X0321616Y0072543D01*
X0321616Y0074142D02*
X0311984Y0074142D01*
X0311984Y0075740D02*
X0311616Y0075740D01*
X0311616Y0077339D02*
X0311984Y0077339D01*
X0311984Y0078937D02*
X0311616Y0078937D01*
X0310642Y0078937D02*
X0305320Y0078937D01*
X0306785Y0077339D02*
X0308114Y0077339D01*
X0312958Y0078937D02*
X0320642Y0078937D01*
X0320683Y0078951D02*
X0319970Y0078719D01*
X0319301Y0078378D01*
X0318694Y0077937D01*
X0318163Y0077406D01*
X0317722Y0076799D01*
X0317381Y0076130D01*
X0317149Y0075417D01*
X0317031Y0074675D01*
X0317031Y0074484D01*
X0321616Y0074484D01*
X0321616Y0079068D01*
X0321425Y0079068D01*
X0320683Y0078951D01*
X0321616Y0078937D02*
X0321984Y0078937D01*
X0322958Y0078937D02*
X0366331Y0078937D01*
X0366331Y0077339D02*
X0325486Y0077339D01*
X0326346Y0075740D02*
X0366331Y0075740D01*
X0366331Y0074142D02*
X0321984Y0074142D01*
X0321984Y0075740D02*
X0321616Y0075740D01*
X0321616Y0077339D02*
X0321984Y0077339D01*
X0318114Y0077339D02*
X0315486Y0077339D01*
X0316346Y0075740D02*
X0317254Y0075740D01*
X0317357Y0072543D02*
X0316243Y0072543D01*
X0315189Y0070945D02*
X0318411Y0070945D01*
X0318504Y0067748D02*
X0315096Y0067748D01*
X0316209Y0066149D02*
X0317391Y0066149D01*
X0317031Y0064551D02*
X0316568Y0064551D01*
X0316376Y0062952D02*
X0317224Y0062952D01*
X0318046Y0061354D02*
X0315554Y0061354D01*
X0311984Y0070945D02*
X0311616Y0070945D01*
X0311616Y0072543D02*
X0311984Y0072543D01*
X0308411Y0070945D02*
X0306603Y0070945D01*
X0307316Y0072543D02*
X0307357Y0072543D01*
X0298280Y0078937D02*
X0295320Y0078937D01*
X0296785Y0077339D02*
X0296815Y0077339D01*
X0288280Y0078937D02*
X0285320Y0078937D01*
X0286785Y0077339D02*
X0286815Y0077339D01*
X0278280Y0078937D02*
X0235600Y0078937D01*
X0235600Y0077339D02*
X0276815Y0077339D01*
X0276153Y0075740D02*
X0235600Y0075740D01*
X0235600Y0074142D02*
X0276031Y0074142D01*
X0276284Y0072543D02*
X0235600Y0072543D01*
X0235600Y0070945D02*
X0276997Y0070945D01*
X0278685Y0069346D02*
X0235600Y0069346D01*
X0235600Y0067748D02*
X0277090Y0067748D01*
X0276322Y0066149D02*
X0235600Y0066149D01*
X0235600Y0064551D02*
X0276031Y0064551D01*
X0276114Y0062952D02*
X0235600Y0062952D01*
X0235600Y0061354D02*
X0276777Y0061354D01*
X0278187Y0059755D02*
X0236803Y0059755D01*
X0237264Y0054960D02*
X0290431Y0054960D01*
X0287726Y0053361D02*
X0236497Y0053361D01*
X0226797Y0059755D02*
X0195413Y0059755D01*
X0196823Y0061354D02*
X0228000Y0061354D01*
X0228000Y0062952D02*
X0197486Y0062952D01*
X0197568Y0064551D02*
X0228000Y0064551D01*
X0228000Y0066149D02*
X0197278Y0066149D01*
X0196510Y0067748D02*
X0228000Y0067748D01*
X0228000Y0069346D02*
X0194915Y0069346D01*
X0196603Y0070945D02*
X0228000Y0070945D01*
X0228000Y0072543D02*
X0197316Y0072543D01*
X0197568Y0074142D02*
X0228000Y0074142D01*
X0228000Y0075740D02*
X0197447Y0075740D01*
X0196785Y0077339D02*
X0228000Y0077339D01*
X0228000Y0078937D02*
X0195320Y0078937D01*
X0188280Y0078937D02*
X0185320Y0078937D01*
X0186785Y0077339D02*
X0186815Y0077339D01*
X0178280Y0078937D02*
X0175320Y0078937D01*
X0176785Y0077339D02*
X0176815Y0077339D01*
X0168280Y0078937D02*
X0165320Y0078937D01*
X0166785Y0077339D02*
X0166815Y0077339D01*
X0158280Y0078937D02*
X0155320Y0078937D01*
X0156785Y0077339D02*
X0156815Y0077339D01*
X0148280Y0078937D02*
X0145320Y0078937D01*
X0146785Y0077339D02*
X0146815Y0077339D01*
X0138280Y0078937D02*
X0135320Y0078937D01*
X0136785Y0077339D02*
X0136815Y0077339D01*
X0138187Y0059755D02*
X0135413Y0059755D01*
X0128187Y0059755D02*
X0125413Y0059755D01*
X0118187Y0059755D02*
X0115413Y0059755D01*
X0106997Y0070945D02*
X0105189Y0070945D01*
X0106243Y0072543D02*
X0106284Y0072543D01*
X0101984Y0075740D02*
X0101616Y0075740D01*
X0101616Y0077339D02*
X0101984Y0077339D01*
X0105486Y0077339D02*
X0106815Y0077339D01*
X0097357Y0072543D02*
X0021600Y0072543D01*
X0021600Y0070945D02*
X0098411Y0070945D01*
X0081004Y0045369D02*
X0287596Y0045369D01*
X0290117Y0043770D02*
X0078483Y0043770D01*
X0021600Y0040573D02*
X0366331Y0040573D01*
X0366331Y0038975D02*
X0021600Y0038975D01*
X0021600Y0037376D02*
X0366331Y0037376D01*
X0366331Y0035778D02*
X0021600Y0035778D01*
X0021600Y0034179D02*
X0366331Y0034179D01*
X0366331Y0032581D02*
X0021600Y0032581D01*
X0021600Y0030982D02*
X0366331Y0030982D01*
X0366331Y0029384D02*
X0021600Y0029384D01*
X0021600Y0027785D02*
X0366331Y0027785D01*
X0366331Y0026187D02*
X0021600Y0026187D01*
X0021600Y0024588D02*
X0366331Y0024588D01*
X0366331Y0022990D02*
X0021600Y0022990D01*
X0021600Y0021391D02*
X0366331Y0021391D01*
X0366331Y0019793D02*
X0021600Y0019793D01*
X0021600Y0018194D02*
X0366331Y0018194D01*
X0366331Y0070945D02*
X0325189Y0070945D01*
X0326243Y0072543D02*
X0366331Y0072543D01*
X0366331Y0080536D02*
X0235600Y0080536D01*
X0235600Y0082134D02*
X0366331Y0082134D01*
X0366331Y0083733D02*
X0235600Y0083733D01*
X0235600Y0085332D02*
X0366331Y0085332D01*
X0366331Y0086930D02*
X0235600Y0086930D01*
X0235600Y0088529D02*
X0366331Y0088529D01*
X0366331Y0090127D02*
X0235600Y0090127D01*
X0235600Y0091726D02*
X0366331Y0091726D01*
X0366331Y0093324D02*
X0235600Y0093324D01*
X0235600Y0094923D02*
X0366331Y0094923D01*
X0366331Y0096521D02*
X0235600Y0096521D01*
X0236255Y0098120D02*
X0366331Y0098120D01*
X0366331Y0099718D02*
X0237164Y0099718D01*
X0237553Y0101317D02*
X0366331Y0101317D01*
X0366331Y0102915D02*
X0237553Y0102915D01*
X0236903Y0104514D02*
X0366331Y0104514D01*
X0366331Y0106112D02*
X0235623Y0106112D01*
X0228000Y0093324D02*
X0021600Y0093324D01*
X0021600Y0091726D02*
X0228000Y0091726D01*
X0228000Y0090127D02*
X0021600Y0090127D01*
X0021600Y0088529D02*
X0228000Y0088529D01*
X0228000Y0086930D02*
X0021600Y0086930D01*
X0021600Y0085332D02*
X0228000Y0085332D01*
X0228000Y0083733D02*
X0021600Y0083733D01*
X0021600Y0082134D02*
X0228000Y0082134D01*
X0228000Y0080536D02*
X0021600Y0080536D01*
X0021600Y0110908D02*
X0366331Y0110908D01*
X0366331Y0112506D02*
X0021600Y0112506D01*
X0021600Y0114105D02*
X0366331Y0114105D01*
X0366331Y0115703D02*
X0021600Y0115703D01*
X0021600Y0117302D02*
X0276161Y0117302D01*
X0274656Y0118900D02*
X0021600Y0118900D01*
X0021600Y0120499D02*
X0273994Y0120499D01*
X0273900Y0122097D02*
X0021600Y0122097D01*
X0021600Y0123696D02*
X0274240Y0123696D01*
X0275158Y0125294D02*
X0021600Y0125294D01*
X0021600Y0171651D02*
X0193516Y0171651D01*
X0285636Y0249978D02*
X0287964Y0249978D01*
X0295636Y0249978D02*
X0297964Y0249978D01*
X0305636Y0249978D02*
X0307964Y0249978D01*
X0315636Y0249978D02*
X0317964Y0249978D01*
X0188502Y0269160D02*
X0185098Y0269160D01*
X0186693Y0267562D02*
X0186907Y0267562D01*
X0178502Y0269160D02*
X0175098Y0269160D01*
X0176693Y0267562D02*
X0176907Y0267562D01*
X0168502Y0269160D02*
X0165098Y0269160D01*
X0166693Y0267562D02*
X0166907Y0267562D01*
X0158502Y0269160D02*
X0155098Y0269160D01*
X0156693Y0267562D02*
X0156907Y0267562D01*
X0148502Y0269160D02*
X0145098Y0269160D01*
X0146693Y0267562D02*
X0146907Y0267562D01*
X0138502Y0269160D02*
X0135098Y0269160D01*
X0136693Y0267562D02*
X0136907Y0267562D01*
X0128502Y0269160D02*
X0125098Y0269160D01*
X0126693Y0267562D02*
X0126907Y0267562D01*
X0118502Y0269160D02*
X0115098Y0269160D01*
X0116693Y0267562D02*
X0116907Y0267562D01*
X0108502Y0269160D02*
X0105098Y0269160D01*
X0106693Y0267562D02*
X0106907Y0267562D01*
X0145413Y0059755D02*
X0148187Y0059755D01*
X0155413Y0059755D02*
X0158187Y0059755D01*
X0165413Y0059755D02*
X0168187Y0059755D01*
X0175413Y0059755D02*
X0178187Y0059755D01*
X0185413Y0059755D02*
X0188187Y0059755D01*
X0285413Y0059755D02*
X0288187Y0059755D01*
X0295413Y0059755D02*
X0298187Y0059755D01*
D18*
X0291800Y0049300D03*
X0231800Y0056800D03*
X0231800Y0101800D03*
X0196800Y0166800D03*
X0096800Y0131800D03*
X0076800Y0049300D03*
D19*
X0291800Y0049300D01*
X0231800Y0056800D02*
X0231800Y0101800D01*
X0196800Y0166800D02*
X0096800Y0166800D01*
X0096800Y0131800D01*
M02*
