%
M48
M72
T01C0.0320
T02C0.0400
T03C0.0472
T04C0.0512
T05C0.1260
T06C0.3150
%
T01
X30180Y8680
X30180Y9680
X30180Y16680
X30180Y17680
X30180Y24180
X30180Y25180
T02
X32290Y18460
X34070Y18460
X34070Y15900
X32290Y15900
X32290Y10460
X34070Y10460
X34070Y7900
X32290Y7900
T03
X27180Y4680
X20180Y4680
X13180Y4680
X6180Y4680
X6180Y20680
X13180Y20680
X20180Y20680
X27180Y20680
T04
X25960Y19460
X28400Y19460
X28400Y21900
X25960Y21900
X21400Y21900
X18960Y21900
X18960Y19460
X21400Y19460
X14400Y19460
X11960Y19460
X11960Y21900
X14400Y21900
X7400Y21900
X4960Y21900
X4960Y19460
X7400Y19460
X7400Y5900
X4960Y5900
X4960Y3460
X7400Y3460
X11960Y3460
X14400Y3460
X14400Y5900
X11960Y5900
X18960Y5900
X21400Y5900
X21400Y3460
X18960Y3460
X25960Y3460
X28400Y3460
X28400Y5900
X25960Y5900
T05
X2930Y2180
X35180Y2180
X35180Y27680
X2930Y27680
T06
X2680Y12180
M30
