G75*
%MOIN*%
%OFA0B0*%
%FSLAX25Y25*%
%IPPOS*%
%LPD*%
%AMOC8*
5,1,8,0,0,1.08239X$1,22.5*
%
%ADD10C,0.00000*%
%ADD11C,0.00600*%
%ADD12R,0.03300X0.06300*%
%ADD13R,0.12200X0.06300*%
%ADD14R,0.05512X0.04331*%
%ADD15R,0.04724X0.04724*%
%ADD16C,0.05200*%
%ADD17R,0.04331X0.05512*%
%ADD18R,0.07087X0.07087*%
%ADD19OC8,0.07087*%
%ADD20R,0.05937X0.05937*%
%ADD21C,0.05937*%
%ADD22R,0.12598X0.12598*%
%ADD23R,0.15354X0.15354*%
%ADD24R,0.12500X0.02500*%
%ADD25R,0.02500X0.12500*%
%ADD26R,0.02100X0.07800*%
%ADD27R,0.05000X0.05000*%
%ADD28R,0.04000X0.25000*%
%ADD29R,0.25000X0.04000*%
%ADD30C,0.05512*%
%ADD31OC8,0.05512*%
%ADD32R,0.03583X0.04803*%
%ADD33R,0.07087X0.04724*%
%ADD34R,0.05200X0.02200*%
%ADD35C,0.02000*%
%ADD36C,0.01600*%
%ADD37C,0.05906*%
D10*
X0016800Y0011800D02*
X0016800Y0286761D01*
X0371131Y0286761D01*
X0371131Y0011800D01*
X0016800Y0011800D01*
D11*
X0022100Y0274600D02*
X0025303Y0274600D01*
X0026370Y0275668D01*
X0026370Y0276735D01*
X0025303Y0277803D01*
X0022100Y0277803D01*
X0022100Y0281005D02*
X0025303Y0281005D01*
X0026370Y0279938D01*
X0026370Y0278870D01*
X0025303Y0277803D01*
X0028545Y0277803D02*
X0031748Y0277803D01*
X0032816Y0276735D01*
X0032816Y0275668D01*
X0031748Y0274600D01*
X0028545Y0274600D01*
X0028545Y0281005D01*
X0031748Y0281005D01*
X0032816Y0279938D01*
X0032816Y0278870D01*
X0031748Y0277803D01*
X0034991Y0277803D02*
X0038194Y0277803D01*
X0039261Y0276735D01*
X0039261Y0275668D01*
X0038194Y0274600D01*
X0034991Y0274600D01*
X0034991Y0281005D01*
X0038194Y0281005D01*
X0039261Y0279938D01*
X0039261Y0278870D01*
X0038194Y0277803D01*
X0047882Y0277803D02*
X0052152Y0277803D01*
X0052152Y0278870D02*
X0052152Y0274600D01*
X0054327Y0274600D02*
X0057530Y0274600D01*
X0058598Y0275668D01*
X0058598Y0279938D01*
X0057530Y0281005D01*
X0054327Y0281005D01*
X0054327Y0274600D01*
X0047882Y0274600D02*
X0047882Y0278870D01*
X0050017Y0281005D01*
X0052152Y0278870D01*
X0060773Y0278870D02*
X0061841Y0277803D01*
X0063976Y0277803D01*
X0065043Y0276735D01*
X0065043Y0275668D01*
X0063976Y0274600D01*
X0061841Y0274600D01*
X0060773Y0275668D01*
X0060773Y0278870D02*
X0060773Y0279938D01*
X0061841Y0281005D01*
X0063976Y0281005D01*
X0065043Y0279938D01*
X0067218Y0278870D02*
X0069354Y0281005D01*
X0069354Y0274600D01*
X0071489Y0274600D02*
X0067218Y0274600D01*
X0073664Y0274600D02*
X0077934Y0278870D01*
X0077934Y0279938D01*
X0076867Y0281005D01*
X0074732Y0281005D01*
X0073664Y0279938D01*
X0073664Y0274600D02*
X0077934Y0274600D01*
X0080109Y0274600D02*
X0080109Y0275668D01*
X0084380Y0279938D01*
X0084380Y0281005D01*
X0080109Y0281005D01*
X0086555Y0278870D02*
X0088690Y0281005D01*
X0088690Y0274600D01*
X0086555Y0274600D02*
X0090825Y0274600D01*
X0022100Y0274600D02*
X0022100Y0281005D01*
X0357095Y0279925D02*
X0363500Y0279925D01*
X0360297Y0279925D02*
X0360297Y0275654D01*
X0357095Y0275654D02*
X0363500Y0275654D01*
X0363500Y0267034D02*
X0360297Y0267034D01*
X0359230Y0265966D01*
X0359230Y0262763D01*
X0363500Y0262763D01*
X0362432Y0260588D02*
X0360297Y0260588D01*
X0359230Y0259521D01*
X0359230Y0257385D01*
X0360297Y0256318D01*
X0362432Y0256318D01*
X0363500Y0257385D01*
X0363500Y0259521D01*
X0362432Y0260588D01*
X0363500Y0254156D02*
X0363500Y0252021D01*
X0363500Y0253088D02*
X0359230Y0253088D01*
X0359230Y0252021D01*
X0359230Y0249846D02*
X0359230Y0246643D01*
X0360297Y0245575D01*
X0361365Y0246643D01*
X0361365Y0248778D01*
X0362432Y0249846D01*
X0363500Y0248778D01*
X0363500Y0245575D01*
X0359230Y0243407D02*
X0359230Y0242339D01*
X0361365Y0240204D01*
X0363500Y0240204D02*
X0359230Y0240204D01*
X0360297Y0238029D02*
X0361365Y0238029D01*
X0361365Y0233759D01*
X0362432Y0233759D02*
X0360297Y0233759D01*
X0359230Y0234826D01*
X0359230Y0236961D01*
X0360297Y0238029D01*
X0363500Y0236961D02*
X0363500Y0234826D01*
X0362432Y0233759D01*
X0361365Y0231583D02*
X0363500Y0229448D01*
X0361365Y0227313D01*
X0357095Y0227313D01*
X0357095Y0231583D02*
X0361365Y0231583D01*
X0357095Y0253088D02*
X0356027Y0253088D01*
D12*
X0260900Y0134200D03*
X0251800Y0134200D03*
X0242700Y0134200D03*
D13*
X0251800Y0159400D03*
D14*
X0261800Y0108237D03*
X0261800Y0100363D03*
X0121800Y0050737D03*
X0121800Y0042863D03*
X0101800Y0042863D03*
X0101800Y0050737D03*
D15*
X0112666Y0036800D03*
X0120934Y0036800D03*
X0085934Y0036800D03*
X0077666Y0036800D03*
X0217666Y0039300D03*
X0225934Y0039300D03*
D16*
X0279300Y0121800D03*
X0289300Y0121800D03*
D17*
X0260737Y0121800D03*
X0252863Y0121800D03*
X0250737Y0111800D03*
X0242863Y0111800D03*
X0302863Y0086800D03*
X0310737Y0086800D03*
X0243237Y0039300D03*
X0235363Y0039300D03*
X0090737Y0074300D03*
X0082863Y0074300D03*
X0075737Y0061800D03*
X0067863Y0061800D03*
D18*
X0116800Y0102706D03*
X0116800Y0135206D03*
D19*
X0126800Y0135206D03*
X0136800Y0135206D03*
X0136800Y0102706D03*
X0126800Y0102706D03*
D20*
X0101800Y0064300D03*
X0101800Y0254300D03*
D21*
X0111800Y0254300D03*
X0111800Y0264300D03*
X0101800Y0264300D03*
X0121800Y0264300D03*
X0131800Y0264300D03*
X0131800Y0254300D03*
X0121800Y0254300D03*
X0141800Y0254300D03*
X0141800Y0264300D03*
X0151800Y0264300D03*
X0161800Y0264300D03*
X0161800Y0254300D03*
X0151800Y0254300D03*
X0171800Y0254300D03*
X0181800Y0254300D03*
X0181800Y0264300D03*
X0171800Y0264300D03*
X0191800Y0264300D03*
X0191800Y0254300D03*
X0281800Y0254300D03*
X0281800Y0264300D03*
X0291800Y0264300D03*
X0301800Y0264300D03*
X0301800Y0254300D03*
X0291800Y0254300D03*
X0311800Y0254300D03*
X0321800Y0254300D03*
X0321800Y0264300D03*
X0311800Y0264300D03*
X0311800Y0074300D03*
X0321800Y0074300D03*
X0321800Y0064300D03*
X0311800Y0064300D03*
X0301800Y0064300D03*
X0291800Y0064300D03*
X0281800Y0064300D03*
X0281800Y0074300D03*
X0291800Y0074300D03*
X0301800Y0074300D03*
X0191800Y0074300D03*
X0181800Y0074300D03*
X0171800Y0074300D03*
X0161800Y0074300D03*
X0151800Y0074300D03*
X0141800Y0074300D03*
X0131800Y0074300D03*
X0121800Y0074300D03*
X0111800Y0074300D03*
X0101800Y0074300D03*
X0111800Y0064300D03*
X0121800Y0064300D03*
X0131800Y0064300D03*
X0141800Y0064300D03*
X0151800Y0064300D03*
X0161800Y0064300D03*
X0171800Y0064300D03*
X0181800Y0064300D03*
X0191800Y0064300D03*
D22*
X0214517Y0196800D03*
X0279083Y0196800D03*
D23*
X0246800Y0196800D03*
D24*
X0321800Y0191800D03*
X0321800Y0201800D03*
X0321800Y0211800D03*
X0321800Y0221800D03*
X0351300Y0221800D03*
X0351300Y0211800D03*
X0351300Y0201800D03*
X0351300Y0191800D03*
X0351300Y0181800D03*
X0351300Y0171800D03*
X0351300Y0161800D03*
X0351300Y0151800D03*
X0351800Y0141800D03*
X0351800Y0131800D03*
X0321800Y0131800D03*
X0321800Y0141800D03*
X0321800Y0151800D03*
X0321800Y0161800D03*
X0321800Y0171800D03*
X0321800Y0181800D03*
X0081800Y0181800D03*
X0081800Y0171800D03*
X0081800Y0161800D03*
X0081800Y0151800D03*
X0081800Y0141800D03*
X0081800Y0131800D03*
X0051800Y0131800D03*
X0051800Y0141800D03*
X0051800Y0151800D03*
X0051800Y0161800D03*
X0051800Y0171800D03*
X0051800Y0181800D03*
X0051800Y0191800D03*
X0051800Y0201800D03*
X0051800Y0211800D03*
X0051800Y0221800D03*
X0081800Y0221800D03*
X0081800Y0211800D03*
X0081800Y0201800D03*
X0081800Y0191800D03*
D25*
X0181800Y0131300D03*
X0191800Y0131300D03*
X0201800Y0131300D03*
X0211800Y0131300D03*
X0221800Y0131300D03*
X0221800Y0103050D03*
X0211800Y0103050D03*
X0201800Y0103050D03*
X0191800Y0103050D03*
X0181800Y0103050D03*
D26*
X0269300Y0111500D03*
X0274300Y0111500D03*
X0279300Y0111500D03*
X0284300Y0111500D03*
X0284300Y0092100D03*
X0279300Y0092100D03*
X0274300Y0092100D03*
X0269300Y0092100D03*
D27*
X0336800Y0079202D03*
X0354517Y0079202D03*
X0354517Y0041800D03*
X0336800Y0041800D03*
D28*
X0171800Y0046800D03*
X0161800Y0046800D03*
X0151800Y0046800D03*
X0141800Y0046800D03*
X0131800Y0046800D03*
D29*
X0046800Y0051800D03*
X0046800Y0061800D03*
D30*
X0120580Y0187902D03*
X0180816Y0187902D03*
X0190658Y0187902D03*
X0190658Y0227272D03*
X0180816Y0227666D03*
D31*
X0120580Y0227666D03*
D32*
X0147853Y0141800D03*
X0160747Y0141800D03*
D33*
X0160580Y0154339D03*
X0160580Y0166938D03*
X0160580Y0175599D03*
X0160580Y0184261D03*
X0133020Y0184261D03*
X0133020Y0175599D03*
X0133020Y0166938D03*
X0133020Y0154339D03*
D34*
X0156800Y0118000D03*
X0166800Y0118000D03*
X0166800Y0114300D03*
X0166800Y0110600D03*
X0156800Y0110600D03*
D35*
X0146800Y0110600D01*
X0136800Y0135206D01*
X0146800Y0141800D02*
X0146800Y0154339D01*
X0146800Y0160550D01*
X0169300Y0160550D01*
X0169300Y0132961D01*
X0160747Y0141800D02*
X0156800Y0141800D01*
X0156800Y0118000D01*
X0174300Y0114300D02*
X0174300Y0175599D01*
X0160580Y0175599D01*
X0160580Y0184261D02*
X0160580Y0196800D01*
X0196800Y0196800D01*
X0201800Y0196800D01*
X0201800Y0166800D01*
X0196800Y0166800D01*
X0201800Y0166800D02*
X0201800Y0151800D01*
X0196800Y0146800D01*
X0196800Y0121800D01*
X0191800Y0116800D01*
X0191800Y0103050D01*
X0191800Y0091800D01*
X0241800Y0091800D01*
X0241800Y0111800D01*
X0242863Y0111800D01*
X0241800Y0111800D02*
X0241800Y0133300D01*
X0242700Y0134200D01*
X0251800Y0134200D02*
X0251800Y0121800D01*
X0252863Y0121800D01*
X0252863Y0108237D01*
X0261800Y0108237D01*
X0261800Y0100363D02*
X0246800Y0086800D01*
X0176800Y0086800D01*
X0174300Y0091800D01*
X0174300Y0114300D01*
X0181800Y0116800D02*
X0181800Y0103050D01*
X0181800Y0116800D02*
X0186800Y0121800D01*
X0186800Y0151800D01*
X0190658Y0155658D01*
X0190658Y0187902D01*
X0181800Y0187902D02*
X0181800Y0131300D01*
X0201800Y0131300D02*
X0201800Y0103050D01*
X0221800Y0103050D02*
X0223050Y0101800D01*
X0231800Y0101800D01*
X0221800Y0103050D02*
X0221800Y0106800D01*
X0231800Y0116800D01*
X0231800Y0146800D01*
X0261800Y0146800D01*
X0261800Y0134200D01*
X0260900Y0134200D01*
X0260900Y0121800D01*
X0260737Y0121800D01*
X0269300Y0121800D02*
X0269300Y0166800D01*
X0274300Y0171800D01*
X0274300Y0196800D01*
X0279083Y0196800D01*
X0301800Y0206800D02*
X0301800Y0161800D01*
X0321800Y0161800D01*
X0326800Y0161800D01*
X0339300Y0161800D02*
X0339300Y0141800D01*
X0339300Y0104300D01*
X0311800Y0104300D01*
X0311800Y0086800D01*
X0310737Y0086800D01*
X0311800Y0081800D01*
X0311800Y0074300D01*
X0311800Y0064300D01*
X0321800Y0064300D01*
X0321800Y0074300D01*
X0301800Y0074300D02*
X0301800Y0064300D01*
X0301800Y0041800D01*
X0301800Y0029300D01*
X0161800Y0029300D01*
X0161800Y0046800D01*
X0161800Y0064300D01*
X0151800Y0064300D02*
X0151800Y0046800D01*
X0151800Y0021800D01*
X0354300Y0021800D01*
X0354300Y0041800D01*
X0354517Y0041800D01*
X0336800Y0041800D02*
X0301800Y0041800D01*
X0291800Y0049300D02*
X0291800Y0064300D01*
X0301800Y0074300D02*
X0301800Y0081800D01*
X0302863Y0086800D01*
X0294300Y0084300D02*
X0294300Y0104300D01*
X0311800Y0104300D01*
X0294300Y0084300D02*
X0280737Y0084300D01*
X0243237Y0039300D01*
X0231800Y0056800D02*
X0215934Y0055934D01*
X0216800Y0046800D01*
X0216800Y0044300D01*
X0216800Y0039300D01*
X0217666Y0039300D01*
X0216800Y0044300D02*
X0172666Y0045934D01*
X0171800Y0046800D01*
X0191800Y0064300D02*
X0256800Y0064300D01*
X0274300Y0084300D01*
X0274300Y0092100D01*
X0269300Y0092100D02*
X0269300Y0089300D01*
X0256800Y0074300D01*
X0191800Y0074300D01*
X0171800Y0074300D02*
X0171800Y0079300D01*
X0166800Y0086800D01*
X0136800Y0089300D02*
X0121800Y0074300D01*
X0121800Y0064300D01*
X0131800Y0064300D02*
X0131800Y0050737D01*
X0121800Y0050737D01*
X0131800Y0050737D02*
X0131800Y0046800D01*
X0121800Y0042863D02*
X0121800Y0036800D01*
X0120934Y0036800D01*
X0112666Y0036800D02*
X0112666Y0050737D01*
X0101800Y0050737D01*
X0101800Y0064300D01*
X0101800Y0074300D01*
X0101800Y0086800D01*
X0121800Y0086800D01*
X0126800Y0091800D01*
X0126800Y0102706D01*
X0126800Y0135206D01*
X0126800Y0154339D01*
X0133020Y0154339D01*
X0132981Y0154300D01*
X0106800Y0154300D01*
X0094300Y0141800D01*
X0081800Y0141800D01*
X0081800Y0131800D02*
X0096800Y0131800D01*
X0116800Y0135206D02*
X0116800Y0121800D01*
X0116800Y0102706D01*
X0136800Y0102706D02*
X0136800Y0089300D01*
X0131800Y0074300D02*
X0131800Y0064300D01*
X0141800Y0064300D02*
X0141800Y0046800D01*
X0111800Y0036800D02*
X0111800Y0016800D01*
X0046800Y0016800D01*
X0046800Y0051800D01*
X0021800Y0051800D01*
X0021800Y0241800D01*
X0121800Y0241800D01*
X0121800Y0227666D01*
X0120580Y0227666D01*
X0120973Y0227272D01*
X0146800Y0227272D01*
X0146800Y0160550D01*
X0146800Y0154339D02*
X0133020Y0154339D01*
X0145520Y0154300D01*
X0160580Y0154339D02*
X0160747Y0154339D01*
X0160747Y0141800D01*
X0147853Y0141800D02*
X0146800Y0141800D01*
X0116800Y0121800D02*
X0066800Y0120206D01*
X0066800Y0176800D01*
X0133020Y0176800D01*
X0133020Y0175599D01*
X0133020Y0184261D02*
X0133020Y0187902D01*
X0120580Y0187902D01*
X0146800Y0227272D02*
X0190658Y0227272D01*
X0246800Y0227272D01*
X0246800Y0196800D01*
X0241800Y0196800D01*
X0211800Y0166800D01*
X0211800Y0159400D01*
X0251800Y0159400D01*
X0211800Y0159400D02*
X0211800Y0151800D01*
X0201800Y0141800D01*
X0201800Y0131300D01*
X0181800Y0187902D02*
X0180816Y0187902D01*
X0171800Y0244300D02*
X0261800Y0244300D01*
X0301800Y0206800D01*
X0306800Y0211800D02*
X0306800Y0181800D01*
X0321800Y0181800D01*
X0339517Y0171800D02*
X0339517Y0264300D01*
X0321800Y0264300D01*
X0321800Y0254300D02*
X0326800Y0244300D01*
X0334300Y0226800D01*
X0334300Y0141800D01*
X0321800Y0141800D01*
X0339300Y0141800D02*
X0351800Y0141800D01*
X0351300Y0161800D02*
X0339300Y0161800D01*
X0339517Y0171800D02*
X0351300Y0171800D01*
X0351300Y0201800D02*
X0351800Y0201800D01*
X0351800Y0211800D01*
X0351800Y0221800D01*
X0351300Y0221800D01*
X0351300Y0211800D02*
X0351800Y0211800D01*
X0321800Y0221800D02*
X0306800Y0221800D01*
X0246800Y0276800D01*
X0141800Y0276800D01*
X0141800Y0264300D01*
X0171800Y0264300D02*
X0171800Y0271800D01*
X0241800Y0271800D01*
X0306800Y0211800D01*
X0269300Y0121800D02*
X0274300Y0116800D01*
X0274300Y0111500D01*
X0339300Y0104300D02*
X0361800Y0104300D01*
X0361800Y0016800D01*
X0111800Y0016800D01*
X0101800Y0036800D02*
X0085934Y0036800D01*
X0077666Y0036800D02*
X0067863Y0036800D01*
X0067863Y0061800D01*
X0067863Y0120206D01*
X0116800Y0121800D01*
X0067863Y0095894D02*
X0067863Y0061800D01*
X0075737Y0061800D02*
X0076800Y0061800D01*
X0076800Y0049300D01*
X0075737Y0061800D02*
X0082863Y0061800D01*
X0082863Y0074300D01*
X0090737Y0074300D02*
X0101800Y0074300D01*
X0111800Y0074300D02*
X0111800Y0064300D01*
X0101800Y0042863D02*
X0101800Y0036800D01*
X0171800Y0244300D02*
X0171800Y0254300D01*
D36*
X0167964Y0249978D02*
X0165636Y0249978D01*
X0165068Y0249410D02*
X0166690Y0251032D01*
X0166800Y0251297D01*
X0166910Y0251032D01*
X0168000Y0249942D01*
X0168000Y0243544D01*
X0168579Y0242147D01*
X0169647Y0241079D01*
X0171044Y0240500D01*
X0260297Y0240500D01*
X0298000Y0205154D01*
X0298000Y0161044D01*
X0298579Y0159647D01*
X0299647Y0158579D01*
X0301044Y0158000D01*
X0305200Y0158000D01*
X0305200Y0121137D01*
X0306137Y0120200D01*
X0362463Y0120200D01*
X0363400Y0121137D01*
X0363400Y0224964D01*
X0365256Y0226820D01*
X0366128Y0227692D01*
X0366331Y0228182D01*
X0366331Y0016600D01*
X0021600Y0016600D01*
X0021600Y0271500D01*
X0025919Y0271500D01*
X0026405Y0271701D01*
X0026924Y0271916D01*
X0027929Y0271500D01*
X0032365Y0271500D01*
X0032850Y0271701D01*
X0033370Y0271916D01*
X0034374Y0271500D01*
X0038810Y0271500D01*
X0039296Y0271701D01*
X0039950Y0271972D01*
X0039980Y0272002D01*
X0041017Y0273040D01*
X0041017Y0273040D01*
X0041859Y0273882D01*
X0041889Y0273912D01*
X0042081Y0274374D01*
X0042361Y0275051D01*
X0042361Y0277352D01*
X0042174Y0277803D01*
X0042361Y0278254D01*
X0042361Y0280555D01*
X0042089Y0281212D01*
X0041889Y0281694D01*
X0041623Y0281961D01*
X0046588Y0281961D01*
X0045254Y0280626D01*
X0044782Y0279487D01*
X0044782Y0273983D01*
X0045254Y0272844D01*
X0046126Y0271972D01*
X0047265Y0271500D01*
X0048499Y0271500D01*
X0049638Y0271972D01*
X0050017Y0272351D01*
X0050396Y0271972D01*
X0051536Y0271500D01*
X0052769Y0271500D01*
X0053240Y0271695D01*
X0053711Y0271500D01*
X0058147Y0271500D01*
X0058605Y0271690D01*
X0059286Y0271972D01*
X0059685Y0272371D01*
X0060085Y0271972D01*
X0061224Y0271500D01*
X0064592Y0271500D01*
X0065078Y0271701D01*
X0065597Y0271916D01*
X0066602Y0271500D01*
X0072105Y0271500D01*
X0072576Y0271695D01*
X0073047Y0271500D01*
X0078551Y0271500D01*
X0079022Y0271695D01*
X0079493Y0271500D01*
X0080726Y0271500D01*
X0081865Y0271972D01*
X0082738Y0272844D01*
X0083209Y0273983D01*
X0083209Y0274384D01*
X0083455Y0274629D01*
X0083455Y0273983D01*
X0083927Y0272844D01*
X0084799Y0271972D01*
X0085938Y0271500D01*
X0091442Y0271500D01*
X0092581Y0271972D01*
X0093453Y0272844D01*
X0093925Y0273983D01*
X0093925Y0275217D01*
X0093453Y0276356D01*
X0092581Y0277228D01*
X0091790Y0277556D01*
X0091790Y0281622D01*
X0091650Y0281961D01*
X0354746Y0281961D01*
X0354466Y0281681D01*
X0353995Y0280541D01*
X0353995Y0279308D01*
X0354466Y0278169D01*
X0354846Y0277790D01*
X0354466Y0277410D01*
X0353995Y0276271D01*
X0353995Y0275038D01*
X0354466Y0273898D01*
X0355339Y0273026D01*
X0356478Y0272554D01*
X0364117Y0272554D01*
X0365256Y0273026D01*
X0366128Y0273898D01*
X0366331Y0274388D01*
X0366331Y0268300D01*
X0366128Y0268790D01*
X0365256Y0269662D01*
X0364117Y0270134D01*
X0359681Y0270134D01*
X0358541Y0269662D01*
X0357669Y0268790D01*
X0356602Y0267722D01*
X0356130Y0266583D01*
X0356130Y0262147D01*
X0356546Y0261142D01*
X0356130Y0260137D01*
X0356130Y0256769D01*
X0356370Y0256188D01*
X0355410Y0256188D01*
X0354271Y0255717D01*
X0353399Y0254844D01*
X0352927Y0253705D01*
X0352927Y0252472D01*
X0353399Y0251332D01*
X0354271Y0250460D01*
X0355410Y0249988D01*
X0356130Y0249988D01*
X0356130Y0246026D01*
X0356402Y0245368D01*
X0356544Y0245025D01*
X0356130Y0244024D01*
X0356130Y0241723D01*
X0356316Y0241272D01*
X0356130Y0240821D01*
X0356130Y0239588D01*
X0356546Y0238583D01*
X0356130Y0237578D01*
X0356130Y0234539D01*
X0355339Y0234212D01*
X0354466Y0233339D01*
X0353995Y0232200D01*
X0353995Y0230967D01*
X0354022Y0230900D01*
X0343317Y0230900D01*
X0343317Y0265056D01*
X0342738Y0266453D01*
X0341669Y0267521D01*
X0340272Y0268100D01*
X0326158Y0268100D01*
X0325068Y0269190D01*
X0322947Y0270068D01*
X0320653Y0270068D01*
X0318532Y0269190D01*
X0316910Y0267568D01*
X0316800Y0267303D01*
X0316690Y0267568D01*
X0315068Y0269190D01*
X0312947Y0270068D01*
X0310653Y0270068D01*
X0308532Y0269190D01*
X0306910Y0267568D01*
X0306800Y0267303D01*
X0306690Y0267568D01*
X0305068Y0269190D01*
X0302947Y0270068D01*
X0300653Y0270068D01*
X0298532Y0269190D01*
X0296910Y0267568D01*
X0296800Y0267303D01*
X0296690Y0267568D01*
X0295068Y0269190D01*
X0292947Y0270068D01*
X0290653Y0270068D01*
X0288532Y0269190D01*
X0286910Y0267568D01*
X0286800Y0267303D01*
X0286690Y0267568D01*
X0285068Y0269190D01*
X0282947Y0270068D01*
X0280653Y0270068D01*
X0278532Y0269190D01*
X0276910Y0267568D01*
X0276031Y0265447D01*
X0276031Y0263153D01*
X0276910Y0261032D01*
X0278532Y0259410D01*
X0278797Y0259300D01*
X0278532Y0259190D01*
X0276910Y0257568D01*
X0276031Y0255447D01*
X0276031Y0255159D01*
X0249429Y0279545D01*
X0248953Y0280021D01*
X0248874Y0280054D01*
X0248811Y0280112D01*
X0248178Y0280342D01*
X0247556Y0280600D01*
X0247470Y0280600D01*
X0247390Y0280629D01*
X0246717Y0280600D01*
X0141044Y0280600D01*
X0139647Y0280021D01*
X0138579Y0278953D01*
X0138000Y0277556D01*
X0138000Y0268658D01*
X0136910Y0267568D01*
X0136800Y0267303D01*
X0136690Y0267568D01*
X0135068Y0269190D01*
X0132947Y0270068D01*
X0130653Y0270068D01*
X0128532Y0269190D01*
X0126910Y0267568D01*
X0126800Y0267303D01*
X0126690Y0267568D01*
X0125068Y0269190D01*
X0122947Y0270068D01*
X0120653Y0270068D01*
X0118532Y0269190D01*
X0116910Y0267568D01*
X0116800Y0267303D01*
X0116690Y0267568D01*
X0115068Y0269190D01*
X0112947Y0270068D01*
X0110653Y0270068D01*
X0108532Y0269190D01*
X0106910Y0267568D01*
X0106800Y0267303D01*
X0106690Y0267568D01*
X0105068Y0269190D01*
X0102947Y0270068D01*
X0100653Y0270068D01*
X0098532Y0269190D01*
X0096910Y0267568D01*
X0096031Y0265447D01*
X0096031Y0263153D01*
X0096910Y0261032D01*
X0097991Y0259951D01*
X0097245Y0259642D01*
X0096458Y0258855D01*
X0096031Y0257825D01*
X0096031Y0250775D01*
X0096458Y0249745D01*
X0097245Y0248958D01*
X0098275Y0248531D01*
X0105325Y0248531D01*
X0106355Y0248958D01*
X0107142Y0249745D01*
X0107451Y0250491D01*
X0108532Y0249410D01*
X0110653Y0248531D01*
X0112947Y0248531D01*
X0115068Y0249410D01*
X0116690Y0251032D01*
X0116800Y0251297D01*
X0116910Y0251032D01*
X0118532Y0249410D01*
X0120653Y0248531D01*
X0122947Y0248531D01*
X0125068Y0249410D01*
X0126690Y0251032D01*
X0126800Y0251297D01*
X0126910Y0251032D01*
X0128532Y0249410D01*
X0130653Y0248531D01*
X0132947Y0248531D01*
X0135068Y0249410D01*
X0136690Y0251032D01*
X0136800Y0251297D01*
X0136910Y0251032D01*
X0138532Y0249410D01*
X0140653Y0248531D01*
X0142947Y0248531D01*
X0145068Y0249410D01*
X0146690Y0251032D01*
X0146800Y0251297D01*
X0146910Y0251032D01*
X0148532Y0249410D01*
X0150653Y0248531D01*
X0152947Y0248531D01*
X0155068Y0249410D01*
X0156690Y0251032D01*
X0156800Y0251297D01*
X0156910Y0251032D01*
X0158532Y0249410D01*
X0160653Y0248531D01*
X0162947Y0248531D01*
X0165068Y0249410D01*
X0168000Y0248380D02*
X0021600Y0248380D01*
X0021600Y0249978D02*
X0096361Y0249978D01*
X0096031Y0251577D02*
X0021600Y0251577D01*
X0021600Y0253175D02*
X0096031Y0253175D01*
X0096031Y0254774D02*
X0021600Y0254774D01*
X0021600Y0256372D02*
X0096031Y0256372D01*
X0096092Y0257971D02*
X0021600Y0257971D01*
X0021600Y0259569D02*
X0097172Y0259569D01*
X0096854Y0261168D02*
X0021600Y0261168D01*
X0021600Y0262766D02*
X0096191Y0262766D01*
X0096031Y0264365D02*
X0021600Y0264365D01*
X0021600Y0265963D02*
X0096245Y0265963D01*
X0096907Y0267562D02*
X0021600Y0267562D01*
X0021600Y0269160D02*
X0098502Y0269160D01*
X0093914Y0273956D02*
X0138000Y0273956D01*
X0138000Y0275554D02*
X0093785Y0275554D01*
X0092656Y0277153D02*
X0138000Y0277153D01*
X0138495Y0278751D02*
X0091790Y0278751D01*
X0091790Y0280350D02*
X0140440Y0280350D01*
X0138000Y0272357D02*
X0092967Y0272357D01*
X0084414Y0272357D02*
X0082251Y0272357D01*
X0083198Y0273956D02*
X0083466Y0273956D01*
X0091655Y0281948D02*
X0354734Y0281948D01*
X0353995Y0280350D02*
X0248160Y0280350D01*
X0250295Y0278751D02*
X0354225Y0278751D01*
X0354360Y0277153D02*
X0252039Y0277153D01*
X0253782Y0275554D02*
X0353995Y0275554D01*
X0354443Y0273956D02*
X0255526Y0273956D01*
X0257270Y0272357D02*
X0366331Y0272357D01*
X0366331Y0270759D02*
X0259014Y0270759D01*
X0260758Y0269160D02*
X0278502Y0269160D01*
X0276907Y0267562D02*
X0262502Y0267562D01*
X0264245Y0265963D02*
X0276245Y0265963D01*
X0276031Y0264365D02*
X0265989Y0264365D01*
X0267733Y0262766D02*
X0276191Y0262766D01*
X0276854Y0261168D02*
X0269477Y0261168D01*
X0271221Y0259569D02*
X0278373Y0259569D01*
X0277313Y0257971D02*
X0272965Y0257971D01*
X0274708Y0256372D02*
X0276415Y0256372D01*
X0286693Y0267562D02*
X0286907Y0267562D01*
X0288502Y0269160D02*
X0285098Y0269160D01*
X0295098Y0269160D02*
X0298502Y0269160D01*
X0296907Y0267562D02*
X0296693Y0267562D01*
X0305098Y0269160D02*
X0308502Y0269160D01*
X0306907Y0267562D02*
X0306693Y0267562D01*
X0315098Y0269160D02*
X0318502Y0269160D01*
X0316907Y0267562D02*
X0316693Y0267562D01*
X0325098Y0269160D02*
X0358040Y0269160D01*
X0356535Y0267562D02*
X0341572Y0267562D01*
X0342941Y0265963D02*
X0356130Y0265963D01*
X0356130Y0264365D02*
X0343317Y0264365D01*
X0343317Y0262766D02*
X0356130Y0262766D01*
X0356535Y0261168D02*
X0343317Y0261168D01*
X0343317Y0259569D02*
X0356130Y0259569D01*
X0356130Y0257971D02*
X0343317Y0257971D01*
X0343317Y0256372D02*
X0356294Y0256372D01*
X0353370Y0254774D02*
X0343317Y0254774D01*
X0343317Y0253175D02*
X0352927Y0253175D01*
X0353298Y0251577D02*
X0343317Y0251577D01*
X0343317Y0249978D02*
X0356130Y0249978D01*
X0356130Y0248380D02*
X0343317Y0248380D01*
X0343317Y0246781D02*
X0356130Y0246781D01*
X0356479Y0245183D02*
X0343317Y0245183D01*
X0343317Y0243584D02*
X0356130Y0243584D01*
X0356130Y0241986D02*
X0343317Y0241986D01*
X0343317Y0240387D02*
X0356130Y0240387D01*
X0356461Y0238789D02*
X0343317Y0238789D01*
X0343317Y0237190D02*
X0356130Y0237190D01*
X0356130Y0235592D02*
X0343317Y0235592D01*
X0343317Y0233993D02*
X0355120Y0233993D01*
X0354075Y0232395D02*
X0343317Y0232395D01*
X0363400Y0224402D02*
X0366331Y0224402D01*
X0366331Y0222803D02*
X0363400Y0222803D01*
X0363400Y0221205D02*
X0366331Y0221205D01*
X0366331Y0219606D02*
X0363400Y0219606D01*
X0363400Y0218008D02*
X0366331Y0218008D01*
X0366331Y0216409D02*
X0363400Y0216409D01*
X0363400Y0214811D02*
X0366331Y0214811D01*
X0366331Y0213212D02*
X0363400Y0213212D01*
X0363400Y0211614D02*
X0366331Y0211614D01*
X0366331Y0210015D02*
X0363400Y0210015D01*
X0363400Y0208417D02*
X0366331Y0208417D01*
X0366331Y0206818D02*
X0363400Y0206818D01*
X0363400Y0205220D02*
X0366331Y0205220D01*
X0366331Y0203621D02*
X0363400Y0203621D01*
X0363400Y0202023D02*
X0366331Y0202023D01*
X0366331Y0200424D02*
X0363400Y0200424D01*
X0363400Y0198826D02*
X0366331Y0198826D01*
X0366331Y0197227D02*
X0363400Y0197227D01*
X0363400Y0195629D02*
X0366331Y0195629D01*
X0366331Y0194030D02*
X0363400Y0194030D01*
X0363400Y0192432D02*
X0366331Y0192432D01*
X0366331Y0190833D02*
X0363400Y0190833D01*
X0363400Y0189235D02*
X0366331Y0189235D01*
X0366331Y0187636D02*
X0363400Y0187636D01*
X0363400Y0186038D02*
X0366331Y0186038D01*
X0366331Y0184439D02*
X0363400Y0184439D01*
X0363400Y0182841D02*
X0366331Y0182841D01*
X0366331Y0181242D02*
X0363400Y0181242D01*
X0363400Y0179644D02*
X0366331Y0179644D01*
X0366331Y0178045D02*
X0363400Y0178045D01*
X0363400Y0176447D02*
X0366331Y0176447D01*
X0366331Y0174848D02*
X0363400Y0174848D01*
X0363400Y0173250D02*
X0366331Y0173250D01*
X0366331Y0171651D02*
X0363400Y0171651D01*
X0363400Y0170053D02*
X0366331Y0170053D01*
X0366331Y0168454D02*
X0363400Y0168454D01*
X0363400Y0166856D02*
X0366331Y0166856D01*
X0366331Y0165257D02*
X0363400Y0165257D01*
X0363400Y0163659D02*
X0366331Y0163659D01*
X0366331Y0162060D02*
X0363400Y0162060D01*
X0363400Y0160462D02*
X0366331Y0160462D01*
X0366331Y0158863D02*
X0363400Y0158863D01*
X0363400Y0157265D02*
X0366331Y0157265D01*
X0366331Y0155666D02*
X0363400Y0155666D01*
X0363400Y0154068D02*
X0366331Y0154068D01*
X0366331Y0152469D02*
X0363400Y0152469D01*
X0363400Y0150870D02*
X0366331Y0150870D01*
X0366331Y0149272D02*
X0363400Y0149272D01*
X0363400Y0147673D02*
X0366331Y0147673D01*
X0366331Y0146075D02*
X0363400Y0146075D01*
X0363400Y0144476D02*
X0366331Y0144476D01*
X0366331Y0142878D02*
X0363400Y0142878D01*
X0363400Y0141279D02*
X0366331Y0141279D01*
X0366331Y0139681D02*
X0363400Y0139681D01*
X0363400Y0138082D02*
X0366331Y0138082D01*
X0366331Y0136484D02*
X0363400Y0136484D01*
X0363400Y0134885D02*
X0366331Y0134885D01*
X0366331Y0133287D02*
X0363400Y0133287D01*
X0363400Y0131688D02*
X0366331Y0131688D01*
X0366331Y0130090D02*
X0363400Y0130090D01*
X0363400Y0128491D02*
X0366331Y0128491D01*
X0366331Y0126893D02*
X0363400Y0126893D01*
X0363400Y0125294D02*
X0366331Y0125294D01*
X0366331Y0123696D02*
X0363400Y0123696D01*
X0363400Y0122097D02*
X0366331Y0122097D01*
X0366331Y0120499D02*
X0362762Y0120499D01*
X0366331Y0118900D02*
X0293944Y0118900D01*
X0293878Y0118741D02*
X0294700Y0120726D01*
X0294700Y0122874D01*
X0293878Y0124859D01*
X0292359Y0126378D01*
X0290374Y0127200D01*
X0288226Y0127200D01*
X0286241Y0126378D01*
X0284722Y0124859D01*
X0284300Y0123840D01*
X0283878Y0124859D01*
X0282359Y0126378D01*
X0280374Y0127200D01*
X0278226Y0127200D01*
X0276241Y0126378D01*
X0274722Y0124859D01*
X0273900Y0122874D01*
X0273900Y0122574D01*
X0273100Y0123374D01*
X0273100Y0165226D01*
X0276453Y0168579D01*
X0277521Y0169647D01*
X0278100Y0171044D01*
X0278100Y0175837D01*
X0293400Y0191137D01*
X0293400Y0207463D01*
X0272463Y0228400D01*
X0266951Y0228400D01*
X0266448Y0228496D01*
X0266308Y0228400D01*
X0266137Y0228400D01*
X0265775Y0228038D01*
X0265352Y0227750D01*
X0265320Y0227583D01*
X0265200Y0227463D01*
X0265200Y0226951D01*
X0255476Y0175900D01*
X0228637Y0175900D01*
X0227700Y0174963D01*
X0226137Y0173400D01*
X0225200Y0172463D01*
X0225200Y0166137D01*
X0226137Y0165200D01*
X0265500Y0165200D01*
X0265500Y0147797D01*
X0265021Y0148953D01*
X0263953Y0150021D01*
X0262556Y0150600D01*
X0231044Y0150600D01*
X0229647Y0150021D01*
X0228579Y0148953D01*
X0228090Y0147773D01*
X0227463Y0148400D01*
X0208600Y0148400D01*
X0208600Y0180344D01*
X0215781Y0175557D01*
X0216137Y0175200D01*
X0216316Y0175200D01*
X0216464Y0175101D01*
X0216958Y0175200D01*
X0217463Y0175200D01*
X0217589Y0175326D01*
X0217764Y0175361D01*
X0218043Y0175781D01*
X0228400Y0186137D01*
X0228400Y0227463D01*
X0227463Y0228400D01*
X0201137Y0228400D01*
X0200200Y0227463D01*
X0200200Y0203600D01*
X0151054Y0203600D01*
X0150000Y0202546D01*
X0150000Y0148400D01*
X0093400Y0148400D01*
X0093400Y0161000D01*
X0142131Y0161000D01*
X0142600Y0161469D01*
X0142600Y0192131D01*
X0142131Y0192600D01*
X0123739Y0192600D01*
X0123727Y0192612D01*
X0121685Y0193458D01*
X0119474Y0193458D01*
X0117432Y0192612D01*
X0117420Y0192600D01*
X0093400Y0192600D01*
X0093400Y0232463D01*
X0092463Y0233400D01*
X0036137Y0233400D01*
X0035200Y0232463D01*
X0035200Y0121137D01*
X0036137Y0120200D01*
X0050200Y0120200D01*
X0050200Y0073400D01*
X0026137Y0073400D01*
X0025200Y0072463D01*
X0025200Y0051137D01*
X0026137Y0050200D01*
X0032500Y0050200D01*
X0032500Y0049563D01*
X0032623Y0049105D01*
X0032860Y0048695D01*
X0033195Y0048360D01*
X0033605Y0048123D01*
X0034063Y0048000D01*
X0046600Y0048000D01*
X0046600Y0050200D01*
X0047000Y0050200D01*
X0047000Y0048000D01*
X0059537Y0048000D01*
X0059995Y0048123D01*
X0060200Y0048241D01*
X0060200Y0031137D01*
X0061137Y0030200D01*
X0148000Y0030200D01*
X0148000Y0021044D01*
X0148579Y0019647D01*
X0149647Y0018579D01*
X0151044Y0018000D01*
X0355056Y0018000D01*
X0356453Y0018579D01*
X0357521Y0019647D01*
X0358100Y0021044D01*
X0358100Y0036718D01*
X0358603Y0036926D01*
X0359390Y0037714D01*
X0359817Y0038743D01*
X0359817Y0044857D01*
X0359390Y0045886D01*
X0358603Y0046674D01*
X0357573Y0047100D01*
X0351460Y0047100D01*
X0350430Y0046674D01*
X0349643Y0045886D01*
X0349217Y0044857D01*
X0349217Y0038743D01*
X0349643Y0037714D01*
X0350430Y0036926D01*
X0350500Y0036897D01*
X0350500Y0025600D01*
X0302797Y0025600D01*
X0303953Y0026079D01*
X0305021Y0027147D01*
X0305600Y0028544D01*
X0305600Y0038000D01*
X0331808Y0038000D01*
X0331926Y0037714D01*
X0332714Y0036926D01*
X0333743Y0036500D01*
X0339857Y0036500D01*
X0340886Y0036926D01*
X0341674Y0037714D01*
X0342100Y0038743D01*
X0342100Y0044857D01*
X0341674Y0045886D01*
X0340886Y0046674D01*
X0339857Y0047100D01*
X0333743Y0047100D01*
X0332714Y0046674D01*
X0331926Y0045886D01*
X0331808Y0045600D01*
X0305600Y0045600D01*
X0305600Y0059942D01*
X0306690Y0061032D01*
X0307339Y0062598D01*
X0307381Y0062470D01*
X0307722Y0061801D01*
X0308163Y0061194D01*
X0308694Y0060663D01*
X0309301Y0060222D01*
X0309970Y0059881D01*
X0310683Y0059649D01*
X0311425Y0059531D01*
X0311616Y0059531D01*
X0311616Y0064116D01*
X0311984Y0064116D01*
X0311984Y0059531D01*
X0312175Y0059531D01*
X0312917Y0059649D01*
X0313630Y0059881D01*
X0314299Y0060222D01*
X0314906Y0060663D01*
X0315437Y0061194D01*
X0315878Y0061801D01*
X0316219Y0062470D01*
X0316451Y0063183D01*
X0316568Y0063925D01*
X0316568Y0064116D01*
X0311984Y0064116D01*
X0311984Y0064484D01*
X0311616Y0064484D01*
X0311616Y0069068D01*
X0311425Y0069068D01*
X0310683Y0068951D01*
X0309970Y0068719D01*
X0309301Y0068378D01*
X0308694Y0067937D01*
X0308163Y0067406D01*
X0307722Y0066799D01*
X0307381Y0066130D01*
X0307339Y0066002D01*
X0306690Y0067568D01*
X0305600Y0068658D01*
X0305600Y0069942D01*
X0306690Y0071032D01*
X0307339Y0072598D01*
X0307381Y0072470D01*
X0307722Y0071801D01*
X0308163Y0071194D01*
X0308694Y0070663D01*
X0309301Y0070222D01*
X0309970Y0069881D01*
X0310683Y0069649D01*
X0311425Y0069531D01*
X0311616Y0069531D01*
X0311616Y0074116D01*
X0311984Y0074116D01*
X0311984Y0069531D01*
X0312175Y0069531D01*
X0312917Y0069649D01*
X0313630Y0069881D01*
X0314299Y0070222D01*
X0314906Y0070663D01*
X0315437Y0071194D01*
X0315878Y0071801D01*
X0316219Y0072470D01*
X0316451Y0073183D01*
X0316568Y0073925D01*
X0316568Y0074116D01*
X0311984Y0074116D01*
X0311984Y0074484D01*
X0311616Y0074484D01*
X0311616Y0079068D01*
X0311425Y0079068D01*
X0310683Y0078951D01*
X0309970Y0078719D01*
X0309301Y0078378D01*
X0308694Y0077937D01*
X0308163Y0077406D01*
X0307722Y0076799D01*
X0307381Y0076130D01*
X0307339Y0076002D01*
X0306690Y0077568D01*
X0305600Y0078658D01*
X0305600Y0081250D01*
X0306614Y0081670D01*
X0307402Y0082458D01*
X0307464Y0082607D01*
X0307466Y0082604D01*
X0307877Y0082367D01*
X0308335Y0082244D01*
X0310454Y0082244D01*
X0310454Y0086517D01*
X0311020Y0086517D01*
X0311020Y0087083D01*
X0310454Y0087083D01*
X0310454Y0091356D01*
X0308335Y0091356D01*
X0307877Y0091233D01*
X0307466Y0090996D01*
X0307464Y0090993D01*
X0307402Y0091142D01*
X0306614Y0091930D01*
X0305585Y0092356D01*
X0300141Y0092356D01*
X0299112Y0091930D01*
X0298324Y0091142D01*
X0297898Y0090113D01*
X0297898Y0083487D01*
X0298142Y0082898D01*
X0298000Y0082556D01*
X0298000Y0082199D01*
X0297926Y0081851D01*
X0298000Y0081451D01*
X0298000Y0078658D01*
X0296910Y0077568D01*
X0296800Y0077303D01*
X0296690Y0077568D01*
X0295068Y0079190D01*
X0292947Y0080068D01*
X0290653Y0080068D01*
X0288532Y0079190D01*
X0286910Y0077568D01*
X0286800Y0077303D01*
X0286690Y0077568D01*
X0285068Y0079190D01*
X0282947Y0080068D01*
X0280653Y0080068D01*
X0278532Y0079190D01*
X0276910Y0077568D01*
X0276031Y0075447D01*
X0276031Y0073153D01*
X0276910Y0071032D01*
X0278532Y0069410D01*
X0278797Y0069300D01*
X0278532Y0069190D01*
X0276910Y0067568D01*
X0276031Y0065447D01*
X0276031Y0063153D01*
X0276910Y0061032D01*
X0278532Y0059410D01*
X0280653Y0058531D01*
X0282947Y0058531D01*
X0285068Y0059410D01*
X0286690Y0061032D01*
X0286800Y0061297D01*
X0286910Y0061032D01*
X0288000Y0059942D01*
X0288000Y0053636D01*
X0286923Y0052559D01*
X0286047Y0050444D01*
X0286047Y0048156D01*
X0286923Y0046041D01*
X0288541Y0044423D01*
X0290656Y0043547D01*
X0292944Y0043547D01*
X0295059Y0044423D01*
X0296677Y0046041D01*
X0297553Y0048156D01*
X0297553Y0050444D01*
X0296677Y0052559D01*
X0295600Y0053636D01*
X0295600Y0059942D01*
X0296690Y0061032D01*
X0296800Y0061297D01*
X0296910Y0061032D01*
X0298000Y0059942D01*
X0298000Y0033100D01*
X0178400Y0033100D01*
X0178400Y0041919D01*
X0212504Y0040656D01*
X0212504Y0036381D01*
X0212930Y0035352D01*
X0213718Y0034564D01*
X0214747Y0034138D01*
X0220585Y0034138D01*
X0221614Y0034564D01*
X0221800Y0034750D01*
X0221986Y0034564D01*
X0223015Y0034138D01*
X0228853Y0034138D01*
X0229882Y0034564D01*
X0230663Y0035345D01*
X0230824Y0034958D01*
X0231612Y0034170D01*
X0232641Y0033744D01*
X0238085Y0033744D01*
X0239114Y0034170D01*
X0239902Y0034958D01*
X0239964Y0035107D01*
X0239966Y0035104D01*
X0240377Y0034867D01*
X0240835Y0034744D01*
X0242954Y0034744D01*
X0242954Y0039017D01*
X0243520Y0039017D01*
X0243520Y0039583D01*
X0242954Y0039583D01*
X0242954Y0043856D01*
X0240835Y0043856D01*
X0240377Y0043733D01*
X0239966Y0043496D01*
X0239964Y0043493D01*
X0239902Y0043642D01*
X0239114Y0044430D01*
X0238085Y0044856D01*
X0232641Y0044856D01*
X0231612Y0044430D01*
X0230824Y0043642D01*
X0230663Y0043255D01*
X0229882Y0044036D01*
X0228853Y0044462D01*
X0223015Y0044462D01*
X0221986Y0044036D01*
X0221800Y0043850D01*
X0221614Y0044036D01*
X0220608Y0044453D01*
X0220625Y0044915D01*
X0220600Y0044983D01*
X0220600Y0046229D01*
X0220654Y0046406D01*
X0220600Y0046980D01*
X0220600Y0047556D01*
X0220529Y0047727D01*
X0220090Y0052355D01*
X0227694Y0052770D01*
X0228541Y0051923D01*
X0230656Y0051047D01*
X0232944Y0051047D01*
X0235059Y0051923D01*
X0236677Y0053541D01*
X0237553Y0055656D01*
X0237553Y0057944D01*
X0236677Y0060059D01*
X0236236Y0060500D01*
X0256175Y0060500D01*
X0256299Y0060458D01*
X0256927Y0060500D01*
X0257556Y0060500D01*
X0257677Y0060550D01*
X0257807Y0060559D01*
X0258371Y0060838D01*
X0258953Y0061079D01*
X0259045Y0061171D01*
X0259162Y0061229D01*
X0259577Y0061703D01*
X0260021Y0062147D01*
X0260071Y0062268D01*
X0277076Y0081702D01*
X0277521Y0082147D01*
X0277571Y0082268D01*
X0277658Y0082367D01*
X0277859Y0082963D01*
X0278100Y0083544D01*
X0278100Y0083675D01*
X0278142Y0083799D01*
X0278100Y0084427D01*
X0278100Y0085400D01*
X0280907Y0085400D01*
X0281800Y0085770D01*
X0282693Y0085400D01*
X0285907Y0085400D01*
X0286936Y0085826D01*
X0287724Y0086614D01*
X0288150Y0087643D01*
X0288150Y0096557D01*
X0287900Y0097161D01*
X0287900Y0101079D01*
X0287600Y0101803D01*
X0287600Y0105890D01*
X0287724Y0106014D01*
X0288150Y0107043D01*
X0288150Y0115335D01*
X0289155Y0116400D01*
X0290374Y0116400D01*
X0292359Y0117222D01*
X0293878Y0118741D01*
X0294606Y0120499D02*
X0305838Y0120499D01*
X0305200Y0122097D02*
X0294700Y0122097D01*
X0294360Y0123696D02*
X0305200Y0123696D01*
X0305200Y0125294D02*
X0293442Y0125294D01*
X0291116Y0126893D02*
X0305200Y0126893D01*
X0305200Y0128491D02*
X0273100Y0128491D01*
X0273100Y0126893D02*
X0277484Y0126893D01*
X0275158Y0125294D02*
X0273100Y0125294D01*
X0273100Y0123696D02*
X0274240Y0123696D01*
X0279300Y0121800D02*
X0279300Y0111500D01*
X0284300Y0111500D02*
X0284300Y0116500D01*
X0289300Y0121800D01*
X0285158Y0125294D02*
X0283442Y0125294D01*
X0281116Y0126893D02*
X0287484Y0126893D01*
X0292438Y0117302D02*
X0366331Y0117302D01*
X0366331Y0115703D02*
X0288498Y0115703D01*
X0288150Y0114105D02*
X0366331Y0114105D01*
X0366331Y0112506D02*
X0288150Y0112506D01*
X0288150Y0110908D02*
X0366331Y0110908D01*
X0366331Y0109309D02*
X0288150Y0109309D01*
X0288150Y0107711D02*
X0366331Y0107711D01*
X0366331Y0106112D02*
X0287764Y0106112D01*
X0287600Y0104514D02*
X0366331Y0104514D01*
X0366331Y0102915D02*
X0287600Y0102915D01*
X0287802Y0101317D02*
X0366331Y0101317D01*
X0366331Y0099718D02*
X0287900Y0099718D01*
X0287900Y0098120D02*
X0366331Y0098120D01*
X0366331Y0096521D02*
X0288150Y0096521D01*
X0288150Y0094923D02*
X0366331Y0094923D01*
X0366331Y0093324D02*
X0288150Y0093324D01*
X0288150Y0091726D02*
X0298908Y0091726D01*
X0297904Y0090127D02*
X0288150Y0090127D01*
X0288150Y0088529D02*
X0297898Y0088529D01*
X0297898Y0086930D02*
X0287855Y0086930D01*
X0284300Y0092100D02*
X0284300Y0100363D01*
X0261800Y0100363D01*
X0256244Y0103085D02*
X0256670Y0104114D01*
X0257458Y0104902D01*
X0257607Y0104964D01*
X0257604Y0104966D01*
X0257367Y0105377D01*
X0257244Y0105835D01*
X0257244Y0107954D01*
X0261517Y0107954D01*
X0261517Y0108520D01*
X0261517Y0112202D01*
X0258807Y0112202D01*
X0258349Y0112080D01*
X0257939Y0111843D01*
X0257604Y0111508D01*
X0257367Y0111097D01*
X0257244Y0110639D01*
X0257244Y0108520D01*
X0261517Y0108520D01*
X0262083Y0108520D01*
X0262083Y0112202D01*
X0264793Y0112202D01*
X0265251Y0112080D01*
X0265661Y0111843D01*
X0265996Y0111508D01*
X0266000Y0111501D01*
X0266000Y0112131D01*
X0266450Y0112581D01*
X0266450Y0115637D01*
X0266573Y0116095D01*
X0266810Y0116505D01*
X0267145Y0116840D01*
X0267555Y0117077D01*
X0268013Y0117200D01*
X0268526Y0117200D01*
X0267147Y0118579D01*
X0266079Y0119647D01*
X0265702Y0120556D01*
X0265702Y0118487D01*
X0265276Y0117458D01*
X0264488Y0116670D01*
X0263459Y0116244D01*
X0258015Y0116244D01*
X0256986Y0116670D01*
X0256198Y0117458D01*
X0256136Y0117607D01*
X0256134Y0117604D01*
X0255723Y0117367D01*
X0255265Y0117244D01*
X0253146Y0117244D01*
X0253146Y0121517D01*
X0252580Y0121517D01*
X0252580Y0117244D01*
X0250461Y0117244D01*
X0250003Y0117367D01*
X0249592Y0117604D01*
X0249257Y0117939D01*
X0249020Y0118349D01*
X0248898Y0118807D01*
X0248898Y0121517D01*
X0252580Y0121517D01*
X0252580Y0122083D01*
X0252580Y0126356D01*
X0250461Y0126356D01*
X0250003Y0126233D01*
X0249592Y0125996D01*
X0249257Y0125661D01*
X0249020Y0125251D01*
X0248898Y0124793D01*
X0248898Y0122083D01*
X0252580Y0122083D01*
X0253146Y0122083D01*
X0253146Y0126356D01*
X0255265Y0126356D01*
X0255723Y0126233D01*
X0256134Y0125996D01*
X0256136Y0125993D01*
X0256198Y0126142D01*
X0256986Y0126930D01*
X0257100Y0126977D01*
X0257100Y0129240D01*
X0256876Y0129464D01*
X0256450Y0130493D01*
X0256450Y0137907D01*
X0256876Y0138936D01*
X0257664Y0139724D01*
X0258000Y0139863D01*
X0258000Y0143000D01*
X0235600Y0143000D01*
X0235600Y0116044D01*
X0235021Y0114647D01*
X0233953Y0113579D01*
X0228400Y0108026D01*
X0228400Y0106536D01*
X0228541Y0106677D01*
X0230656Y0107553D01*
X0232944Y0107553D01*
X0235059Y0106677D01*
X0236677Y0105059D01*
X0237553Y0102944D01*
X0237553Y0100656D01*
X0236677Y0098541D01*
X0235059Y0096923D01*
X0232944Y0096047D01*
X0230656Y0096047D01*
X0228541Y0096923D01*
X0228400Y0097064D01*
X0228400Y0095600D01*
X0238000Y0095600D01*
X0238000Y0108240D01*
X0237898Y0108487D01*
X0237898Y0115113D01*
X0238000Y0115360D01*
X0238000Y0134056D01*
X0238250Y0134659D01*
X0238250Y0137907D01*
X0238676Y0138936D01*
X0239464Y0139724D01*
X0240493Y0140150D01*
X0244907Y0140150D01*
X0245936Y0139724D01*
X0246724Y0138936D01*
X0247150Y0137907D01*
X0247150Y0130493D01*
X0246724Y0129464D01*
X0245936Y0128676D01*
X0245600Y0128537D01*
X0245600Y0117350D01*
X0246614Y0116930D01*
X0247402Y0116142D01*
X0247464Y0115993D01*
X0247466Y0115996D01*
X0247877Y0116233D01*
X0248335Y0116356D01*
X0250454Y0116356D01*
X0250454Y0112083D01*
X0251020Y0112083D01*
X0251020Y0116356D01*
X0253139Y0116356D01*
X0253597Y0116233D01*
X0254008Y0115996D01*
X0254343Y0115661D01*
X0254580Y0115251D01*
X0254702Y0114793D01*
X0254702Y0112083D01*
X0251020Y0112083D01*
X0251020Y0111517D01*
X0254702Y0111517D01*
X0254702Y0108807D01*
X0254580Y0108349D01*
X0254343Y0107939D01*
X0254008Y0107604D01*
X0253597Y0107367D01*
X0253139Y0107244D01*
X0251020Y0107244D01*
X0251020Y0111517D01*
X0250454Y0111517D01*
X0250454Y0107244D01*
X0248335Y0107244D01*
X0247877Y0107367D01*
X0247466Y0107604D01*
X0247464Y0107607D01*
X0247402Y0107458D01*
X0246614Y0106670D01*
X0245600Y0106250D01*
X0245600Y0091044D01*
X0245463Y0090715D01*
X0256244Y0100462D01*
X0256244Y0103085D01*
X0256244Y0102915D02*
X0245600Y0102915D01*
X0245600Y0101317D02*
X0256244Y0101317D01*
X0255421Y0099718D02*
X0245600Y0099718D01*
X0245600Y0098120D02*
X0253653Y0098120D01*
X0251885Y0096521D02*
X0245600Y0096521D01*
X0245600Y0094923D02*
X0250117Y0094923D01*
X0248349Y0093324D02*
X0245600Y0093324D01*
X0245600Y0091726D02*
X0246582Y0091726D01*
X0238000Y0096521D02*
X0234088Y0096521D01*
X0236255Y0098120D02*
X0238000Y0098120D01*
X0238000Y0099718D02*
X0237164Y0099718D01*
X0237553Y0101317D02*
X0238000Y0101317D01*
X0238000Y0102915D02*
X0237553Y0102915D01*
X0238000Y0104514D02*
X0236903Y0104514D01*
X0238000Y0106112D02*
X0235623Y0106112D01*
X0238000Y0107711D02*
X0228400Y0107711D01*
X0229683Y0109309D02*
X0237898Y0109309D01*
X0237898Y0110908D02*
X0231282Y0110908D01*
X0232880Y0112506D02*
X0237898Y0112506D01*
X0237898Y0114105D02*
X0234479Y0114105D01*
X0235459Y0115703D02*
X0238000Y0115703D01*
X0238000Y0117302D02*
X0235600Y0117302D01*
X0235600Y0118900D02*
X0238000Y0118900D01*
X0238000Y0120499D02*
X0235600Y0120499D01*
X0235600Y0122097D02*
X0238000Y0122097D01*
X0238000Y0123696D02*
X0235600Y0123696D01*
X0235600Y0125294D02*
X0238000Y0125294D01*
X0238000Y0126893D02*
X0235600Y0126893D01*
X0235600Y0128491D02*
X0238000Y0128491D01*
X0238000Y0130090D02*
X0235600Y0130090D01*
X0235600Y0131688D02*
X0238000Y0131688D01*
X0238000Y0133287D02*
X0235600Y0133287D01*
X0235600Y0134885D02*
X0238250Y0134885D01*
X0238250Y0136484D02*
X0235600Y0136484D01*
X0235600Y0138082D02*
X0238323Y0138082D01*
X0239421Y0139681D02*
X0235600Y0139681D01*
X0235600Y0141279D02*
X0258000Y0141279D01*
X0258000Y0142878D02*
X0235600Y0142878D01*
X0228898Y0149272D02*
X0208600Y0149272D01*
X0208600Y0150870D02*
X0265500Y0150870D01*
X0265500Y0149272D02*
X0264702Y0149272D01*
X0265500Y0152469D02*
X0208600Y0152469D01*
X0208600Y0154068D02*
X0265500Y0154068D01*
X0265500Y0155666D02*
X0259607Y0155666D01*
X0259577Y0155555D02*
X0259700Y0156013D01*
X0259700Y0158625D01*
X0252575Y0158625D01*
X0252575Y0160175D01*
X0251025Y0160175D01*
X0251025Y0164350D01*
X0245463Y0164350D01*
X0245005Y0164227D01*
X0244595Y0163990D01*
X0244260Y0163655D01*
X0244023Y0163245D01*
X0243900Y0162787D01*
X0243900Y0160175D01*
X0251025Y0160175D01*
X0251025Y0158625D01*
X0252575Y0158625D01*
X0252575Y0154450D01*
X0258137Y0154450D01*
X0258595Y0154573D01*
X0259005Y0154810D01*
X0259340Y0155145D01*
X0259577Y0155555D01*
X0259700Y0157265D02*
X0265500Y0157265D01*
X0265500Y0158863D02*
X0252575Y0158863D01*
X0252575Y0160175D02*
X0259700Y0160175D01*
X0259700Y0162787D01*
X0259577Y0163245D01*
X0259340Y0163655D01*
X0259005Y0163990D01*
X0258595Y0164227D01*
X0258137Y0164350D01*
X0252575Y0164350D01*
X0252575Y0160175D01*
X0252575Y0160462D02*
X0251025Y0160462D01*
X0251025Y0162060D02*
X0252575Y0162060D01*
X0252575Y0163659D02*
X0251025Y0163659D01*
X0251025Y0158863D02*
X0208600Y0158863D01*
X0208600Y0157265D02*
X0243900Y0157265D01*
X0243900Y0156013D02*
X0244023Y0155555D01*
X0244260Y0155145D01*
X0244595Y0154810D01*
X0245005Y0154573D01*
X0245463Y0154450D01*
X0251025Y0154450D01*
X0251025Y0158625D01*
X0243900Y0158625D01*
X0243900Y0156013D01*
X0243993Y0155666D02*
X0208600Y0155666D01*
X0208600Y0160462D02*
X0243900Y0160462D01*
X0243900Y0162060D02*
X0208600Y0162060D01*
X0208600Y0163659D02*
X0244263Y0163659D01*
X0251025Y0157265D02*
X0252575Y0157265D01*
X0252575Y0155666D02*
X0251025Y0155666D01*
X0259700Y0160462D02*
X0265500Y0160462D01*
X0265500Y0162060D02*
X0259700Y0162060D01*
X0259337Y0163659D02*
X0265500Y0163659D01*
X0273100Y0163659D02*
X0298000Y0163659D01*
X0298000Y0165257D02*
X0273131Y0165257D01*
X0274730Y0166856D02*
X0298000Y0166856D01*
X0298000Y0168454D02*
X0276328Y0168454D01*
X0277689Y0170053D02*
X0298000Y0170053D01*
X0298000Y0171651D02*
X0278100Y0171651D01*
X0278100Y0173250D02*
X0298000Y0173250D01*
X0298000Y0174848D02*
X0278100Y0174848D01*
X0278709Y0176447D02*
X0298000Y0176447D01*
X0298000Y0178045D02*
X0280308Y0178045D01*
X0281906Y0179644D02*
X0298000Y0179644D01*
X0298000Y0181242D02*
X0283505Y0181242D01*
X0285103Y0182841D02*
X0298000Y0182841D01*
X0298000Y0184439D02*
X0286702Y0184439D01*
X0288300Y0186038D02*
X0298000Y0186038D01*
X0298000Y0187636D02*
X0289899Y0187636D01*
X0291497Y0189235D02*
X0298000Y0189235D01*
X0298000Y0190833D02*
X0293096Y0190833D01*
X0293400Y0192432D02*
X0298000Y0192432D01*
X0298000Y0194030D02*
X0293400Y0194030D01*
X0293400Y0195629D02*
X0298000Y0195629D01*
X0298000Y0197227D02*
X0293400Y0197227D01*
X0293400Y0198826D02*
X0298000Y0198826D01*
X0298000Y0200424D02*
X0293400Y0200424D01*
X0293400Y0202023D02*
X0298000Y0202023D01*
X0298000Y0203621D02*
X0293400Y0203621D01*
X0293400Y0205220D02*
X0297929Y0205220D01*
X0296224Y0206818D02*
X0293400Y0206818D01*
X0292446Y0208417D02*
X0294519Y0208417D01*
X0292814Y0210015D02*
X0290847Y0210015D01*
X0291109Y0211614D02*
X0289249Y0211614D01*
X0289404Y0213212D02*
X0287650Y0213212D01*
X0287699Y0214811D02*
X0286052Y0214811D01*
X0285994Y0216409D02*
X0284453Y0216409D01*
X0284289Y0218008D02*
X0282855Y0218008D01*
X0282584Y0219606D02*
X0281256Y0219606D01*
X0280879Y0221205D02*
X0279658Y0221205D01*
X0279174Y0222803D02*
X0278059Y0222803D01*
X0277468Y0224402D02*
X0276461Y0224402D01*
X0275763Y0226001D02*
X0274862Y0226001D01*
X0274058Y0227599D02*
X0273264Y0227599D01*
X0272353Y0229198D02*
X0194791Y0229198D01*
X0194880Y0229021D02*
X0194555Y0229660D01*
X0194133Y0230240D01*
X0193626Y0230747D01*
X0193046Y0231169D01*
X0192407Y0231495D01*
X0191725Y0231716D01*
X0191017Y0231828D01*
X0190658Y0231828D01*
X0190300Y0231828D01*
X0189591Y0231716D01*
X0188909Y0231495D01*
X0188270Y0231169D01*
X0187690Y0230747D01*
X0187183Y0230240D01*
X0186762Y0229660D01*
X0186436Y0229021D01*
X0186362Y0228794D01*
X0185526Y0230813D01*
X0183963Y0232376D01*
X0181921Y0233222D01*
X0179711Y0233222D01*
X0177669Y0232376D01*
X0176106Y0230813D01*
X0175260Y0228771D01*
X0175260Y0226561D01*
X0176106Y0224519D01*
X0177669Y0222956D01*
X0179711Y0222110D01*
X0181921Y0222110D01*
X0183963Y0222956D01*
X0185526Y0224519D01*
X0186219Y0226192D01*
X0186436Y0225524D01*
X0186762Y0224885D01*
X0187183Y0224304D01*
X0187690Y0223797D01*
X0188270Y0223376D01*
X0188909Y0223050D01*
X0189591Y0222829D01*
X0190300Y0222717D01*
X0190658Y0222717D01*
X0190658Y0227272D01*
X0190658Y0227272D01*
X0190658Y0222717D01*
X0191017Y0222717D01*
X0191725Y0222829D01*
X0192407Y0223050D01*
X0193046Y0223376D01*
X0193626Y0223797D01*
X0194133Y0224304D01*
X0194555Y0224885D01*
X0194880Y0225524D01*
X0195102Y0226206D01*
X0195214Y0226914D01*
X0195214Y0227272D01*
X0190658Y0227272D01*
X0190658Y0227272D01*
X0190658Y0227273D02*
X0190658Y0231828D01*
X0190658Y0227273D01*
X0190658Y0227273D01*
X0190658Y0227272D02*
X0195214Y0227272D01*
X0195214Y0227631D01*
X0195102Y0228339D01*
X0194880Y0229021D01*
X0195214Y0227599D02*
X0200336Y0227599D01*
X0200200Y0226001D02*
X0195035Y0226001D01*
X0194204Y0224402D02*
X0200200Y0224402D01*
X0200200Y0222803D02*
X0191566Y0222803D01*
X0190658Y0222803D02*
X0190658Y0222803D01*
X0189751Y0222803D02*
X0183595Y0222803D01*
X0185409Y0224402D02*
X0187112Y0224402D01*
X0186281Y0226001D02*
X0186139Y0226001D01*
X0186195Y0229198D02*
X0186526Y0229198D01*
X0185533Y0230796D02*
X0187757Y0230796D01*
X0190658Y0230796D02*
X0190658Y0230796D01*
X0190658Y0229198D02*
X0190658Y0229198D01*
X0190658Y0227599D02*
X0190658Y0227599D01*
X0190658Y0226001D02*
X0190658Y0226001D01*
X0190658Y0224402D02*
X0190658Y0224402D01*
X0193559Y0230796D02*
X0270648Y0230796D01*
X0268943Y0232395D02*
X0183919Y0232395D01*
X0177713Y0232395D02*
X0093400Y0232395D01*
X0093400Y0230796D02*
X0117266Y0230796D01*
X0116024Y0229553D02*
X0116024Y0227666D01*
X0116024Y0225779D01*
X0118692Y0223110D01*
X0120579Y0223110D01*
X0120579Y0227666D01*
X0116024Y0227666D01*
X0120579Y0227666D01*
X0120579Y0227666D01*
X0120580Y0227666D01*
X0120580Y0227666D01*
X0125135Y0227666D01*
X0125135Y0225779D01*
X0122467Y0223110D01*
X0120580Y0223110D01*
X0120580Y0227666D01*
X0125135Y0227666D01*
X0125135Y0229553D01*
X0122467Y0232222D01*
X0120580Y0232222D01*
X0120580Y0227666D01*
X0120579Y0227666D01*
X0120579Y0232222D01*
X0118692Y0232222D01*
X0116024Y0229553D01*
X0116024Y0229198D02*
X0093400Y0229198D01*
X0093400Y0227599D02*
X0116024Y0227599D01*
X0116024Y0226001D02*
X0093400Y0226001D01*
X0093400Y0224402D02*
X0117401Y0224402D01*
X0120579Y0224402D02*
X0120580Y0224402D01*
X0120579Y0226001D02*
X0120580Y0226001D01*
X0120579Y0227599D02*
X0120580Y0227599D01*
X0120579Y0229198D02*
X0120580Y0229198D01*
X0120579Y0230796D02*
X0120580Y0230796D01*
X0123893Y0230796D02*
X0176099Y0230796D01*
X0175436Y0229198D02*
X0125135Y0229198D01*
X0125135Y0227599D02*
X0175260Y0227599D01*
X0175492Y0226001D02*
X0125135Y0226001D01*
X0123758Y0224402D02*
X0176223Y0224402D01*
X0178037Y0222803D02*
X0093400Y0222803D01*
X0093400Y0221205D02*
X0200200Y0221205D01*
X0200200Y0219606D02*
X0093400Y0219606D01*
X0093400Y0218008D02*
X0200200Y0218008D01*
X0200200Y0216409D02*
X0093400Y0216409D01*
X0093400Y0214811D02*
X0200200Y0214811D01*
X0200200Y0213212D02*
X0093400Y0213212D01*
X0093400Y0211614D02*
X0200200Y0211614D01*
X0200200Y0210015D02*
X0093400Y0210015D01*
X0093400Y0208417D02*
X0200200Y0208417D01*
X0200200Y0206818D02*
X0093400Y0206818D01*
X0093400Y0205220D02*
X0200200Y0205220D01*
X0200200Y0203621D02*
X0093400Y0203621D01*
X0093400Y0202023D02*
X0150000Y0202023D01*
X0150000Y0200424D02*
X0093400Y0200424D01*
X0093400Y0198826D02*
X0150000Y0198826D01*
X0150000Y0197227D02*
X0093400Y0197227D01*
X0093400Y0195629D02*
X0150000Y0195629D01*
X0150000Y0194030D02*
X0093400Y0194030D01*
X0093400Y0160462D02*
X0150000Y0160462D01*
X0150000Y0162060D02*
X0142600Y0162060D01*
X0142600Y0163659D02*
X0150000Y0163659D01*
X0150000Y0165257D02*
X0142600Y0165257D01*
X0142600Y0166856D02*
X0150000Y0166856D01*
X0150000Y0168454D02*
X0142600Y0168454D01*
X0142600Y0170053D02*
X0150000Y0170053D01*
X0150000Y0171651D02*
X0142600Y0171651D01*
X0142600Y0173250D02*
X0150000Y0173250D01*
X0150000Y0174848D02*
X0142600Y0174848D01*
X0142600Y0176447D02*
X0150000Y0176447D01*
X0150000Y0178045D02*
X0142600Y0178045D01*
X0142600Y0179644D02*
X0150000Y0179644D01*
X0150000Y0181242D02*
X0142600Y0181242D01*
X0142600Y0182841D02*
X0150000Y0182841D01*
X0150000Y0184439D02*
X0142600Y0184439D01*
X0142600Y0186038D02*
X0150000Y0186038D01*
X0150000Y0187636D02*
X0142600Y0187636D01*
X0142600Y0189235D02*
X0150000Y0189235D01*
X0150000Y0190833D02*
X0142600Y0190833D01*
X0142300Y0192432D02*
X0150000Y0192432D01*
X0150000Y0158863D02*
X0093400Y0158863D01*
X0093400Y0157265D02*
X0127765Y0157265D01*
X0127800Y0157396D02*
X0127677Y0156939D01*
X0127677Y0154720D01*
X0132639Y0154720D01*
X0132639Y0153958D01*
X0127677Y0153958D01*
X0127677Y0151740D01*
X0127800Y0151282D01*
X0128037Y0150872D01*
X0128372Y0150537D01*
X0128782Y0150300D01*
X0129240Y0150177D01*
X0132639Y0150177D01*
X0132639Y0153958D01*
X0133402Y0153958D01*
X0133402Y0154720D01*
X0138364Y0154720D01*
X0138364Y0156939D01*
X0138241Y0157396D01*
X0138004Y0157807D01*
X0137669Y0158142D01*
X0137259Y0158379D01*
X0136801Y0158502D01*
X0133402Y0158502D01*
X0133402Y0154721D01*
X0132639Y0154721D01*
X0132639Y0158502D01*
X0129240Y0158502D01*
X0128782Y0158379D01*
X0128372Y0158142D01*
X0128037Y0157807D01*
X0127800Y0157396D01*
X0127677Y0155666D02*
X0093400Y0155666D01*
X0093400Y0154068D02*
X0132639Y0154068D01*
X0133402Y0154068D02*
X0150000Y0154068D01*
X0150000Y0155666D02*
X0138364Y0155666D01*
X0138276Y0157265D02*
X0150000Y0157265D01*
X0150000Y0152469D02*
X0138364Y0152469D01*
X0138364Y0151740D02*
X0138364Y0153958D01*
X0133402Y0153958D01*
X0133402Y0150177D01*
X0136801Y0150177D01*
X0137259Y0150300D01*
X0137669Y0150537D01*
X0138004Y0150872D01*
X0138241Y0151282D01*
X0138364Y0151740D01*
X0138003Y0150870D02*
X0150000Y0150870D01*
X0150000Y0149272D02*
X0093400Y0149272D01*
X0093400Y0150870D02*
X0128038Y0150870D01*
X0127677Y0152469D02*
X0093400Y0152469D01*
X0132639Y0152469D02*
X0133402Y0152469D01*
X0133402Y0150870D02*
X0132639Y0150870D01*
X0132639Y0155666D02*
X0133402Y0155666D01*
X0133402Y0157265D02*
X0132639Y0157265D01*
X0160600Y0136598D02*
X0163095Y0136598D01*
X0164124Y0137025D01*
X0164912Y0137812D01*
X0165338Y0138841D01*
X0165338Y0144759D01*
X0165238Y0145000D01*
X0170500Y0145000D01*
X0170500Y0120543D01*
X0170095Y0120777D01*
X0169637Y0120900D01*
X0166800Y0120900D01*
X0166800Y0118200D01*
X0166800Y0118200D01*
X0166800Y0120900D01*
X0163963Y0120900D01*
X0163505Y0120777D01*
X0163095Y0120540D01*
X0162760Y0120205D01*
X0162523Y0119795D01*
X0162400Y0119337D01*
X0162400Y0118000D01*
X0163160Y0118000D01*
X0162400Y0118000D01*
X0162400Y0117900D01*
X0162200Y0117900D01*
X0162200Y0119657D01*
X0161774Y0120686D01*
X0160986Y0121474D01*
X0160600Y0121634D01*
X0160600Y0136598D01*
X0160600Y0136484D02*
X0170500Y0136484D01*
X0170500Y0138082D02*
X0165024Y0138082D01*
X0165338Y0139681D02*
X0170500Y0139681D01*
X0170500Y0141279D02*
X0165338Y0141279D01*
X0165338Y0142878D02*
X0170500Y0142878D01*
X0170500Y0144476D02*
X0165338Y0144476D01*
X0160600Y0134885D02*
X0170500Y0134885D01*
X0170500Y0133287D02*
X0160600Y0133287D01*
X0160600Y0131688D02*
X0170500Y0131688D01*
X0170500Y0130090D02*
X0160600Y0130090D01*
X0160600Y0128491D02*
X0170500Y0128491D01*
X0170500Y0126893D02*
X0160600Y0126893D01*
X0160600Y0125294D02*
X0170500Y0125294D01*
X0170500Y0123696D02*
X0160600Y0123696D01*
X0160600Y0122097D02*
X0170500Y0122097D01*
X0166800Y0120499D02*
X0166800Y0120499D01*
X0166800Y0118900D02*
X0166800Y0118900D01*
X0166800Y0118000D02*
X0169339Y0118000D01*
X0169300Y0132961D01*
X0163053Y0120499D02*
X0161851Y0120499D01*
X0162200Y0118900D02*
X0162400Y0118900D01*
X0163160Y0118000D02*
X0163160Y0118000D01*
X0160500Y0114300D02*
X0166800Y0114300D01*
X0174300Y0114300D01*
X0166800Y0110600D02*
X0166800Y0086800D01*
X0156800Y0110600D02*
X0160500Y0114300D01*
X0208600Y0165257D02*
X0226080Y0165257D01*
X0225200Y0166856D02*
X0208600Y0166856D01*
X0208600Y0168454D02*
X0225200Y0168454D01*
X0225200Y0170053D02*
X0208600Y0170053D01*
X0208600Y0171651D02*
X0225200Y0171651D01*
X0225987Y0173250D02*
X0208600Y0173250D01*
X0208600Y0174848D02*
X0227585Y0174848D01*
X0221906Y0179644D02*
X0256189Y0179644D01*
X0256494Y0181242D02*
X0223505Y0181242D01*
X0225103Y0182841D02*
X0256798Y0182841D01*
X0257103Y0184439D02*
X0226702Y0184439D01*
X0228300Y0186038D02*
X0257407Y0186038D01*
X0257711Y0187636D02*
X0255502Y0187636D01*
X0255582Y0187682D02*
X0255918Y0188018D01*
X0256154Y0188428D01*
X0256277Y0188886D01*
X0256277Y0196000D01*
X0247600Y0196000D01*
X0247600Y0197600D01*
X0256277Y0197600D01*
X0256277Y0204714D01*
X0256154Y0205172D01*
X0255918Y0205582D01*
X0255582Y0205918D01*
X0255172Y0206154D01*
X0254714Y0206277D01*
X0247600Y0206277D01*
X0247600Y0197600D01*
X0246000Y0197600D01*
X0246000Y0206277D01*
X0238886Y0206277D01*
X0238428Y0206154D01*
X0238018Y0205918D01*
X0237682Y0205582D01*
X0237445Y0205172D01*
X0237323Y0204714D01*
X0237323Y0197600D01*
X0246000Y0197600D01*
X0246000Y0196000D01*
X0247600Y0196000D01*
X0247600Y0187323D01*
X0254714Y0187323D01*
X0255172Y0187445D01*
X0255582Y0187682D01*
X0256277Y0189235D02*
X0258016Y0189235D01*
X0258320Y0190833D02*
X0256277Y0190833D01*
X0256277Y0192432D02*
X0258625Y0192432D01*
X0258929Y0194030D02*
X0256277Y0194030D01*
X0256277Y0195629D02*
X0259234Y0195629D01*
X0259538Y0197227D02*
X0247600Y0197227D01*
X0247600Y0195629D02*
X0246000Y0195629D01*
X0246000Y0196000D02*
X0246000Y0187323D01*
X0238886Y0187323D01*
X0238428Y0187445D01*
X0238018Y0187682D01*
X0237682Y0188018D01*
X0237445Y0188428D01*
X0237323Y0188886D01*
X0237323Y0196000D01*
X0246000Y0196000D01*
X0246000Y0197227D02*
X0228400Y0197227D01*
X0228400Y0195629D02*
X0237323Y0195629D01*
X0237323Y0194030D02*
X0228400Y0194030D01*
X0228400Y0192432D02*
X0237323Y0192432D01*
X0237323Y0190833D02*
X0228400Y0190833D01*
X0228400Y0189235D02*
X0237323Y0189235D01*
X0238098Y0187636D02*
X0228400Y0187636D01*
X0220308Y0178045D02*
X0255885Y0178045D01*
X0255580Y0176447D02*
X0218709Y0176447D01*
X0214446Y0176447D02*
X0208600Y0176447D01*
X0208600Y0178045D02*
X0212048Y0178045D01*
X0209650Y0179644D02*
X0208600Y0179644D01*
X0228400Y0198826D02*
X0237323Y0198826D01*
X0237323Y0200424D02*
X0228400Y0200424D01*
X0228400Y0202023D02*
X0237323Y0202023D01*
X0237323Y0203621D02*
X0228400Y0203621D01*
X0228400Y0205220D02*
X0237473Y0205220D01*
X0246000Y0205220D02*
X0247600Y0205220D01*
X0247600Y0203621D02*
X0246000Y0203621D01*
X0246000Y0202023D02*
X0247600Y0202023D01*
X0247600Y0200424D02*
X0246000Y0200424D01*
X0246000Y0198826D02*
X0247600Y0198826D01*
X0247600Y0194030D02*
X0246000Y0194030D01*
X0246000Y0192432D02*
X0247600Y0192432D01*
X0247600Y0190833D02*
X0246000Y0190833D01*
X0246000Y0189235D02*
X0247600Y0189235D01*
X0247600Y0187636D02*
X0246000Y0187636D01*
X0256277Y0198826D02*
X0259843Y0198826D01*
X0260147Y0200424D02*
X0256277Y0200424D01*
X0256277Y0202023D02*
X0260452Y0202023D01*
X0260756Y0203621D02*
X0256277Y0203621D01*
X0256127Y0205220D02*
X0261061Y0205220D01*
X0261365Y0206818D02*
X0228400Y0206818D01*
X0228400Y0208417D02*
X0261670Y0208417D01*
X0261974Y0210015D02*
X0228400Y0210015D01*
X0228400Y0211614D02*
X0262279Y0211614D01*
X0262583Y0213212D02*
X0228400Y0213212D01*
X0228400Y0214811D02*
X0262888Y0214811D01*
X0263192Y0216409D02*
X0228400Y0216409D01*
X0228400Y0218008D02*
X0263497Y0218008D01*
X0263801Y0219606D02*
X0228400Y0219606D01*
X0228400Y0221205D02*
X0264106Y0221205D01*
X0264410Y0222803D02*
X0228400Y0222803D01*
X0228400Y0224402D02*
X0264714Y0224402D01*
X0265019Y0226001D02*
X0228400Y0226001D01*
X0228264Y0227599D02*
X0265323Y0227599D01*
X0267238Y0233993D02*
X0021600Y0233993D01*
X0021600Y0232395D02*
X0035200Y0232395D01*
X0035200Y0230796D02*
X0021600Y0230796D01*
X0021600Y0229198D02*
X0035200Y0229198D01*
X0035200Y0227599D02*
X0021600Y0227599D01*
X0021600Y0226001D02*
X0035200Y0226001D01*
X0035200Y0224402D02*
X0021600Y0224402D01*
X0021600Y0222803D02*
X0035200Y0222803D01*
X0035200Y0221205D02*
X0021600Y0221205D01*
X0021600Y0219606D02*
X0035200Y0219606D01*
X0035200Y0218008D02*
X0021600Y0218008D01*
X0021600Y0216409D02*
X0035200Y0216409D01*
X0035200Y0214811D02*
X0021600Y0214811D01*
X0021600Y0213212D02*
X0035200Y0213212D01*
X0035200Y0211614D02*
X0021600Y0211614D01*
X0021600Y0210015D02*
X0035200Y0210015D01*
X0035200Y0208417D02*
X0021600Y0208417D01*
X0021600Y0206818D02*
X0035200Y0206818D01*
X0035200Y0205220D02*
X0021600Y0205220D01*
X0021600Y0203621D02*
X0035200Y0203621D01*
X0035200Y0202023D02*
X0021600Y0202023D01*
X0021600Y0200424D02*
X0035200Y0200424D01*
X0035200Y0198826D02*
X0021600Y0198826D01*
X0021600Y0197227D02*
X0035200Y0197227D01*
X0035200Y0195629D02*
X0021600Y0195629D01*
X0021600Y0194030D02*
X0035200Y0194030D01*
X0035200Y0192432D02*
X0021600Y0192432D01*
X0021600Y0190833D02*
X0035200Y0190833D01*
X0035200Y0189235D02*
X0021600Y0189235D01*
X0021600Y0187636D02*
X0035200Y0187636D01*
X0035200Y0186038D02*
X0021600Y0186038D01*
X0021600Y0184439D02*
X0035200Y0184439D01*
X0035200Y0182841D02*
X0021600Y0182841D01*
X0021600Y0181242D02*
X0035200Y0181242D01*
X0035200Y0179644D02*
X0021600Y0179644D01*
X0021600Y0178045D02*
X0035200Y0178045D01*
X0035200Y0176447D02*
X0021600Y0176447D01*
X0021600Y0174848D02*
X0035200Y0174848D01*
X0035200Y0173250D02*
X0021600Y0173250D01*
X0021600Y0171651D02*
X0035200Y0171651D01*
X0035200Y0170053D02*
X0021600Y0170053D01*
X0021600Y0168454D02*
X0035200Y0168454D01*
X0035200Y0166856D02*
X0021600Y0166856D01*
X0021600Y0165257D02*
X0035200Y0165257D01*
X0035200Y0163659D02*
X0021600Y0163659D01*
X0021600Y0162060D02*
X0035200Y0162060D01*
X0035200Y0160462D02*
X0021600Y0160462D01*
X0021600Y0158863D02*
X0035200Y0158863D01*
X0035200Y0157265D02*
X0021600Y0157265D01*
X0021600Y0155666D02*
X0035200Y0155666D01*
X0035200Y0154068D02*
X0021600Y0154068D01*
X0021600Y0152469D02*
X0035200Y0152469D01*
X0035200Y0150870D02*
X0021600Y0150870D01*
X0021600Y0149272D02*
X0035200Y0149272D01*
X0035200Y0147673D02*
X0021600Y0147673D01*
X0021600Y0146075D02*
X0035200Y0146075D01*
X0035200Y0144476D02*
X0021600Y0144476D01*
X0021600Y0142878D02*
X0035200Y0142878D01*
X0035200Y0141279D02*
X0021600Y0141279D01*
X0021600Y0139681D02*
X0035200Y0139681D01*
X0035200Y0138082D02*
X0021600Y0138082D01*
X0021600Y0136484D02*
X0035200Y0136484D01*
X0035200Y0134885D02*
X0021600Y0134885D01*
X0021600Y0133287D02*
X0035200Y0133287D01*
X0035200Y0131688D02*
X0021600Y0131688D01*
X0021600Y0130090D02*
X0035200Y0130090D01*
X0035200Y0128491D02*
X0021600Y0128491D01*
X0021600Y0126893D02*
X0035200Y0126893D01*
X0035200Y0125294D02*
X0021600Y0125294D01*
X0021600Y0123696D02*
X0035200Y0123696D01*
X0035200Y0122097D02*
X0021600Y0122097D01*
X0021600Y0120499D02*
X0035838Y0120499D01*
X0021600Y0118900D02*
X0050200Y0118900D01*
X0050200Y0117302D02*
X0021600Y0117302D01*
X0021600Y0115703D02*
X0050200Y0115703D01*
X0050200Y0114105D02*
X0021600Y0114105D01*
X0021600Y0112506D02*
X0050200Y0112506D01*
X0050200Y0110908D02*
X0021600Y0110908D01*
X0021600Y0109309D02*
X0050200Y0109309D01*
X0050200Y0107711D02*
X0021600Y0107711D01*
X0021600Y0106112D02*
X0050200Y0106112D01*
X0050200Y0104514D02*
X0021600Y0104514D01*
X0021600Y0102915D02*
X0050200Y0102915D01*
X0050200Y0101317D02*
X0021600Y0101317D01*
X0021600Y0099718D02*
X0050200Y0099718D01*
X0050200Y0098120D02*
X0021600Y0098120D01*
X0021600Y0096521D02*
X0050200Y0096521D01*
X0050200Y0094923D02*
X0021600Y0094923D01*
X0021600Y0093324D02*
X0050200Y0093324D01*
X0050200Y0091726D02*
X0021600Y0091726D01*
X0021600Y0090127D02*
X0050200Y0090127D01*
X0050200Y0088529D02*
X0021600Y0088529D01*
X0021600Y0086930D02*
X0050200Y0086930D01*
X0050200Y0085332D02*
X0021600Y0085332D01*
X0021600Y0083733D02*
X0050200Y0083733D01*
X0050200Y0082134D02*
X0021600Y0082134D01*
X0021600Y0080536D02*
X0050200Y0080536D01*
X0050200Y0078937D02*
X0021600Y0078937D01*
X0021600Y0077339D02*
X0050200Y0077339D01*
X0050200Y0075740D02*
X0021600Y0075740D01*
X0021600Y0074142D02*
X0050200Y0074142D01*
X0046800Y0061800D02*
X0067863Y0061800D01*
X0060200Y0046967D02*
X0021600Y0046967D01*
X0021600Y0045369D02*
X0060200Y0045369D01*
X0060200Y0043770D02*
X0021600Y0043770D01*
X0021600Y0042172D02*
X0060200Y0042172D01*
X0060200Y0040573D02*
X0021600Y0040573D01*
X0021600Y0038975D02*
X0060200Y0038975D01*
X0060200Y0037376D02*
X0021600Y0037376D01*
X0021600Y0035778D02*
X0060200Y0035778D01*
X0060200Y0034179D02*
X0021600Y0034179D01*
X0021600Y0032581D02*
X0060200Y0032581D01*
X0060355Y0030982D02*
X0021600Y0030982D01*
X0021600Y0029384D02*
X0148000Y0029384D01*
X0148000Y0027785D02*
X0021600Y0027785D01*
X0021600Y0026187D02*
X0148000Y0026187D01*
X0148000Y0024588D02*
X0021600Y0024588D01*
X0021600Y0022990D02*
X0148000Y0022990D01*
X0148000Y0021391D02*
X0021600Y0021391D01*
X0021600Y0019793D02*
X0148518Y0019793D01*
X0150576Y0018194D02*
X0021600Y0018194D01*
X0021600Y0048566D02*
X0032989Y0048566D01*
X0032500Y0050164D02*
X0021600Y0050164D01*
X0021600Y0051763D02*
X0025200Y0051763D01*
X0025200Y0053361D02*
X0021600Y0053361D01*
X0021600Y0054960D02*
X0025200Y0054960D01*
X0025200Y0056558D02*
X0021600Y0056558D01*
X0021600Y0058157D02*
X0025200Y0058157D01*
X0025200Y0059755D02*
X0021600Y0059755D01*
X0021600Y0061354D02*
X0025200Y0061354D01*
X0025200Y0062952D02*
X0021600Y0062952D01*
X0021600Y0064551D02*
X0025200Y0064551D01*
X0025200Y0066149D02*
X0021600Y0066149D01*
X0021600Y0067748D02*
X0025200Y0067748D01*
X0025200Y0069346D02*
X0021600Y0069346D01*
X0021600Y0070945D02*
X0025200Y0070945D01*
X0025281Y0072543D02*
X0021600Y0072543D01*
X0046600Y0050164D02*
X0047000Y0050164D01*
X0047000Y0048566D02*
X0046600Y0048566D01*
X0111800Y0016800D02*
X0112666Y0016800D01*
X0178400Y0034179D02*
X0214647Y0034179D01*
X0212754Y0035778D02*
X0178400Y0035778D01*
X0178400Y0037376D02*
X0212504Y0037376D01*
X0212504Y0038975D02*
X0178400Y0038975D01*
X0178400Y0040573D02*
X0212504Y0040573D01*
X0220600Y0045369D02*
X0287596Y0045369D01*
X0286540Y0046967D02*
X0220601Y0046967D01*
X0220450Y0048566D02*
X0286047Y0048566D01*
X0286047Y0050164D02*
X0220298Y0050164D01*
X0220146Y0051763D02*
X0228928Y0051763D01*
X0234672Y0051763D02*
X0286593Y0051763D01*
X0287726Y0053361D02*
X0236497Y0053361D01*
X0237264Y0054960D02*
X0288000Y0054960D01*
X0288000Y0056558D02*
X0237553Y0056558D01*
X0237465Y0058157D02*
X0288000Y0058157D01*
X0288000Y0059755D02*
X0285413Y0059755D01*
X0278187Y0059755D02*
X0236803Y0059755D01*
X0239774Y0043770D02*
X0240515Y0043770D01*
X0242954Y0043770D02*
X0243520Y0043770D01*
X0243520Y0043856D02*
X0243520Y0039583D01*
X0247202Y0039583D01*
X0247202Y0042293D01*
X0247080Y0042751D01*
X0246843Y0043161D01*
X0246508Y0043496D01*
X0246097Y0043733D01*
X0245639Y0043856D01*
X0243520Y0043856D01*
X0243520Y0042172D02*
X0242954Y0042172D01*
X0242954Y0040573D02*
X0243520Y0040573D01*
X0243520Y0039017D02*
X0247202Y0039017D01*
X0247202Y0036307D01*
X0247080Y0035849D01*
X0246843Y0035439D01*
X0246508Y0035104D01*
X0246097Y0034867D01*
X0245639Y0034744D01*
X0243520Y0034744D01*
X0243520Y0039017D01*
X0243520Y0038975D02*
X0242954Y0038975D01*
X0242954Y0037376D02*
X0243520Y0037376D01*
X0243520Y0035778D02*
X0242954Y0035778D01*
X0247038Y0035778D02*
X0298000Y0035778D01*
X0298000Y0037376D02*
X0247202Y0037376D01*
X0247202Y0038975D02*
X0298000Y0038975D01*
X0298000Y0040573D02*
X0247202Y0040573D01*
X0247202Y0042172D02*
X0298000Y0042172D01*
X0298000Y0043770D02*
X0293483Y0043770D01*
X0296004Y0045369D02*
X0298000Y0045369D01*
X0298000Y0046967D02*
X0297060Y0046967D01*
X0297553Y0048566D02*
X0298000Y0048566D01*
X0298000Y0050164D02*
X0297553Y0050164D01*
X0298000Y0051763D02*
X0297007Y0051763D01*
X0298000Y0053361D02*
X0295874Y0053361D01*
X0295600Y0054960D02*
X0298000Y0054960D01*
X0298000Y0056558D02*
X0295600Y0056558D01*
X0295600Y0058157D02*
X0298000Y0058157D01*
X0298000Y0059755D02*
X0295600Y0059755D01*
X0305600Y0059755D02*
X0310356Y0059755D01*
X0311616Y0059755D02*
X0311984Y0059755D01*
X0313244Y0059755D02*
X0320356Y0059755D01*
X0320683Y0059649D02*
X0321425Y0059531D01*
X0321616Y0059531D01*
X0321616Y0064116D01*
X0321984Y0064116D01*
X0321984Y0059531D01*
X0322175Y0059531D01*
X0322917Y0059649D01*
X0323630Y0059881D01*
X0324299Y0060222D01*
X0324906Y0060663D01*
X0325437Y0061194D01*
X0325878Y0061801D01*
X0326219Y0062470D01*
X0326451Y0063183D01*
X0326568Y0063925D01*
X0326568Y0064116D01*
X0321984Y0064116D01*
X0321984Y0064484D01*
X0326568Y0064484D01*
X0326568Y0064675D01*
X0326451Y0065417D01*
X0326219Y0066130D01*
X0325878Y0066799D01*
X0325437Y0067406D01*
X0324906Y0067937D01*
X0324299Y0068378D01*
X0323630Y0068719D01*
X0322917Y0068951D01*
X0322175Y0069068D01*
X0321984Y0069068D01*
X0321984Y0064484D01*
X0321616Y0064484D01*
X0321616Y0064116D01*
X0317031Y0064116D01*
X0317031Y0063925D01*
X0317149Y0063183D01*
X0317381Y0062470D01*
X0317722Y0061801D01*
X0318163Y0061194D01*
X0318694Y0060663D01*
X0319301Y0060222D01*
X0319970Y0059881D01*
X0320683Y0059649D01*
X0321616Y0059755D02*
X0321984Y0059755D01*
X0323244Y0059755D02*
X0366331Y0059755D01*
X0366331Y0058157D02*
X0305600Y0058157D01*
X0305600Y0056558D02*
X0366331Y0056558D01*
X0366331Y0054960D02*
X0305600Y0054960D01*
X0305600Y0053361D02*
X0366331Y0053361D01*
X0366331Y0051763D02*
X0305600Y0051763D01*
X0305600Y0050164D02*
X0366331Y0050164D01*
X0366331Y0048566D02*
X0305600Y0048566D01*
X0305600Y0046967D02*
X0333423Y0046967D01*
X0340177Y0046967D02*
X0351139Y0046967D01*
X0349429Y0045369D02*
X0341888Y0045369D01*
X0342100Y0043770D02*
X0349217Y0043770D01*
X0349217Y0042172D02*
X0342100Y0042172D01*
X0342100Y0040573D02*
X0349217Y0040573D01*
X0349217Y0038975D02*
X0342100Y0038975D01*
X0341336Y0037376D02*
X0349981Y0037376D01*
X0350500Y0035778D02*
X0305600Y0035778D01*
X0305600Y0037376D02*
X0332264Y0037376D01*
X0350500Y0034179D02*
X0305600Y0034179D01*
X0305600Y0032581D02*
X0350500Y0032581D01*
X0350500Y0030982D02*
X0305600Y0030982D01*
X0305600Y0029384D02*
X0350500Y0029384D01*
X0350500Y0027785D02*
X0305286Y0027785D01*
X0304061Y0026187D02*
X0350500Y0026187D01*
X0358100Y0026187D02*
X0366331Y0026187D01*
X0366331Y0027785D02*
X0358100Y0027785D01*
X0358100Y0029384D02*
X0366331Y0029384D01*
X0366331Y0030982D02*
X0358100Y0030982D01*
X0358100Y0032581D02*
X0366331Y0032581D01*
X0366331Y0034179D02*
X0358100Y0034179D01*
X0358100Y0035778D02*
X0366331Y0035778D01*
X0366331Y0037376D02*
X0359053Y0037376D01*
X0359817Y0038975D02*
X0366331Y0038975D01*
X0366331Y0040573D02*
X0359817Y0040573D01*
X0359817Y0042172D02*
X0366331Y0042172D01*
X0366331Y0043770D02*
X0359817Y0043770D01*
X0359605Y0045369D02*
X0366331Y0045369D01*
X0366331Y0046967D02*
X0357894Y0046967D01*
X0366331Y0061354D02*
X0325554Y0061354D01*
X0326376Y0062952D02*
X0366331Y0062952D01*
X0366331Y0064551D02*
X0326568Y0064551D01*
X0326209Y0066149D02*
X0366331Y0066149D01*
X0366331Y0067748D02*
X0325096Y0067748D01*
X0323630Y0069881D02*
X0324299Y0070222D01*
X0324906Y0070663D01*
X0325437Y0071194D01*
X0325878Y0071801D01*
X0326219Y0072470D01*
X0326451Y0073183D01*
X0326568Y0073925D01*
X0326568Y0074116D01*
X0321984Y0074116D01*
X0321984Y0069531D01*
X0322175Y0069531D01*
X0322917Y0069649D01*
X0323630Y0069881D01*
X0325189Y0070945D02*
X0366331Y0070945D01*
X0366331Y0072543D02*
X0326243Y0072543D01*
X0326568Y0074484D02*
X0321984Y0074484D01*
X0321984Y0074116D01*
X0321616Y0074116D01*
X0321616Y0069531D01*
X0321425Y0069531D01*
X0320683Y0069649D01*
X0319970Y0069881D01*
X0319301Y0070222D01*
X0318694Y0070663D01*
X0318163Y0071194D01*
X0317722Y0071801D01*
X0317381Y0072470D01*
X0317149Y0073183D01*
X0317031Y0073925D01*
X0317031Y0074116D01*
X0321616Y0074116D01*
X0321616Y0074484D01*
X0317031Y0074484D01*
X0317031Y0074675D01*
X0317149Y0075417D01*
X0317381Y0076130D01*
X0317722Y0076799D01*
X0318163Y0077406D01*
X0318694Y0077937D01*
X0319301Y0078378D01*
X0319970Y0078719D01*
X0320683Y0078951D01*
X0321425Y0079068D01*
X0321616Y0079068D01*
X0321616Y0074484D01*
X0321984Y0074484D01*
X0321984Y0079068D01*
X0322175Y0079068D01*
X0322917Y0078951D01*
X0323630Y0078719D01*
X0324299Y0078378D01*
X0324906Y0077937D01*
X0325437Y0077406D01*
X0325878Y0076799D01*
X0326219Y0076130D01*
X0326451Y0075417D01*
X0326568Y0074675D01*
X0326568Y0074484D01*
X0326346Y0075740D02*
X0331667Y0075740D01*
X0331500Y0076145D02*
X0331926Y0075116D01*
X0332714Y0074328D01*
X0333743Y0073902D01*
X0339857Y0073902D01*
X0340886Y0074328D01*
X0341674Y0075116D01*
X0342100Y0076145D01*
X0342100Y0082259D01*
X0341674Y0083288D01*
X0340886Y0084075D01*
X0339857Y0084502D01*
X0333743Y0084502D01*
X0332714Y0084075D01*
X0331926Y0083288D01*
X0331500Y0082259D01*
X0331500Y0076145D01*
X0331500Y0077339D02*
X0325486Y0077339D01*
X0322958Y0078937D02*
X0331500Y0078937D01*
X0331500Y0080536D02*
X0305600Y0080536D01*
X0305600Y0078937D02*
X0310642Y0078937D01*
X0311616Y0078937D02*
X0311984Y0078937D01*
X0311984Y0079068D02*
X0311984Y0074484D01*
X0316568Y0074484D01*
X0316568Y0074675D01*
X0316451Y0075417D01*
X0316219Y0076130D01*
X0315878Y0076799D01*
X0315437Y0077406D01*
X0314906Y0077937D01*
X0314299Y0078378D01*
X0313630Y0078719D01*
X0312917Y0078951D01*
X0312175Y0079068D01*
X0311984Y0079068D01*
X0312958Y0078937D02*
X0320642Y0078937D01*
X0321616Y0078937D02*
X0321984Y0078937D01*
X0321984Y0077339D02*
X0321616Y0077339D01*
X0321616Y0075740D02*
X0321984Y0075740D01*
X0321984Y0074142D02*
X0333163Y0074142D01*
X0340437Y0074142D02*
X0350879Y0074142D01*
X0350430Y0074328D02*
X0351460Y0073902D01*
X0357573Y0073902D01*
X0358603Y0074328D01*
X0359390Y0075116D01*
X0359817Y0076145D01*
X0359817Y0082259D01*
X0359390Y0083288D01*
X0358603Y0084075D01*
X0357573Y0084502D01*
X0351460Y0084502D01*
X0350430Y0084075D01*
X0349643Y0083288D01*
X0349217Y0082259D01*
X0349217Y0076145D01*
X0349643Y0075116D01*
X0350430Y0074328D01*
X0349384Y0075740D02*
X0341933Y0075740D01*
X0342100Y0077339D02*
X0349217Y0077339D01*
X0349217Y0078937D02*
X0342100Y0078937D01*
X0342100Y0080536D02*
X0349217Y0080536D01*
X0349217Y0082134D02*
X0342100Y0082134D01*
X0341228Y0083733D02*
X0350088Y0083733D01*
X0358945Y0083733D02*
X0366331Y0083733D01*
X0366331Y0082134D02*
X0359817Y0082134D01*
X0359817Y0080536D02*
X0366331Y0080536D01*
X0366331Y0078937D02*
X0359817Y0078937D01*
X0359817Y0077339D02*
X0366331Y0077339D01*
X0366331Y0075740D02*
X0359649Y0075740D01*
X0358154Y0074142D02*
X0366331Y0074142D01*
X0366331Y0069346D02*
X0305600Y0069346D01*
X0306510Y0067748D02*
X0308504Y0067748D01*
X0307391Y0066149D02*
X0307278Y0066149D01*
X0311616Y0066149D02*
X0311984Y0066149D01*
X0311984Y0064551D02*
X0311616Y0064551D01*
X0311984Y0064484D02*
X0311984Y0069068D01*
X0312175Y0069068D01*
X0312917Y0068951D01*
X0313630Y0068719D01*
X0314299Y0068378D01*
X0314906Y0067937D01*
X0315437Y0067406D01*
X0315878Y0066799D01*
X0316219Y0066130D01*
X0316451Y0065417D01*
X0316568Y0064675D01*
X0316568Y0064484D01*
X0311984Y0064484D01*
X0311984Y0062952D02*
X0311616Y0062952D01*
X0311616Y0061354D02*
X0311984Y0061354D01*
X0315554Y0061354D02*
X0318046Y0061354D01*
X0317224Y0062952D02*
X0316376Y0062952D01*
X0316568Y0064551D02*
X0317031Y0064551D01*
X0317031Y0064484D02*
X0321616Y0064484D01*
X0321616Y0069068D01*
X0321425Y0069068D01*
X0320683Y0068951D01*
X0319970Y0068719D01*
X0319301Y0068378D01*
X0318694Y0067937D01*
X0318163Y0067406D01*
X0317722Y0066799D01*
X0317381Y0066130D01*
X0317149Y0065417D01*
X0317031Y0064675D01*
X0317031Y0064484D01*
X0317391Y0066149D02*
X0316209Y0066149D01*
X0315096Y0067748D02*
X0318504Y0067748D01*
X0321616Y0067748D02*
X0321984Y0067748D01*
X0321984Y0066149D02*
X0321616Y0066149D01*
X0321616Y0064551D02*
X0321984Y0064551D01*
X0321984Y0062952D02*
X0321616Y0062952D01*
X0321616Y0061354D02*
X0321984Y0061354D01*
X0311984Y0067748D02*
X0311616Y0067748D01*
X0311616Y0070945D02*
X0311984Y0070945D01*
X0311984Y0072543D02*
X0311616Y0072543D01*
X0311984Y0074142D02*
X0321616Y0074142D01*
X0321616Y0072543D02*
X0321984Y0072543D01*
X0321984Y0070945D02*
X0321616Y0070945D01*
X0318411Y0070945D02*
X0315189Y0070945D01*
X0316243Y0072543D02*
X0317357Y0072543D01*
X0317254Y0075740D02*
X0316346Y0075740D01*
X0315486Y0077339D02*
X0318114Y0077339D01*
X0311984Y0077339D02*
X0311616Y0077339D01*
X0311616Y0075740D02*
X0311984Y0075740D01*
X0308114Y0077339D02*
X0306785Y0077339D01*
X0307079Y0082134D02*
X0331500Y0082134D01*
X0332372Y0083733D02*
X0314682Y0083733D01*
X0314702Y0083807D02*
X0314702Y0086517D01*
X0311020Y0086517D01*
X0311020Y0082244D01*
X0313139Y0082244D01*
X0313597Y0082367D01*
X0314008Y0082604D01*
X0314343Y0082939D01*
X0314580Y0083349D01*
X0314702Y0083807D01*
X0314702Y0085332D02*
X0366331Y0085332D01*
X0366331Y0086930D02*
X0311020Y0086930D01*
X0311020Y0087083D02*
X0314702Y0087083D01*
X0314702Y0089793D01*
X0314580Y0090251D01*
X0314343Y0090661D01*
X0314008Y0090996D01*
X0313597Y0091233D01*
X0313139Y0091356D01*
X0311020Y0091356D01*
X0311020Y0087083D01*
X0311020Y0088529D02*
X0310454Y0088529D01*
X0310454Y0090127D02*
X0311020Y0090127D01*
X0314613Y0090127D02*
X0366331Y0090127D01*
X0366331Y0088529D02*
X0314702Y0088529D01*
X0311020Y0085332D02*
X0310454Y0085332D01*
X0310454Y0083733D02*
X0311020Y0083733D01*
X0306818Y0091726D02*
X0366331Y0091726D01*
X0308411Y0070945D02*
X0306603Y0070945D01*
X0307316Y0072543D02*
X0307357Y0072543D01*
X0298000Y0078937D02*
X0295320Y0078937D01*
X0296785Y0077339D02*
X0296815Y0077339D01*
X0298000Y0080536D02*
X0276056Y0080536D01*
X0274657Y0078937D02*
X0278280Y0078937D01*
X0276815Y0077339D02*
X0273258Y0077339D01*
X0271860Y0075740D02*
X0276153Y0075740D01*
X0276031Y0074142D02*
X0270461Y0074142D01*
X0269062Y0072543D02*
X0276284Y0072543D01*
X0276997Y0070945D02*
X0267664Y0070945D01*
X0266265Y0069346D02*
X0278685Y0069346D01*
X0277090Y0067748D02*
X0264866Y0067748D01*
X0263468Y0066149D02*
X0276322Y0066149D01*
X0276031Y0064551D02*
X0262069Y0064551D01*
X0260670Y0062952D02*
X0276114Y0062952D01*
X0276777Y0061354D02*
X0259271Y0061354D01*
X0245959Y0043770D02*
X0290117Y0043770D01*
X0298000Y0034179D02*
X0239123Y0034179D01*
X0235363Y0039300D02*
X0225934Y0039300D01*
X0228953Y0034179D02*
X0231603Y0034179D01*
X0222915Y0034179D02*
X0220685Y0034179D01*
X0230148Y0043770D02*
X0230952Y0043770D01*
X0277508Y0082134D02*
X0297986Y0082134D01*
X0297898Y0083733D02*
X0278120Y0083733D01*
X0278100Y0085332D02*
X0297898Y0085332D01*
X0288280Y0078937D02*
X0285320Y0078937D01*
X0286785Y0077339D02*
X0286815Y0077339D01*
X0306823Y0061354D02*
X0308046Y0061354D01*
X0358100Y0024588D02*
X0366331Y0024588D01*
X0366331Y0022990D02*
X0358100Y0022990D01*
X0358100Y0021391D02*
X0366331Y0021391D01*
X0366331Y0019793D02*
X0357582Y0019793D01*
X0355524Y0018194D02*
X0366331Y0018194D01*
X0294300Y0104300D02*
X0269300Y0104300D01*
X0269300Y0108237D01*
X0269300Y0111500D01*
X0266375Y0112506D02*
X0254702Y0112506D01*
X0254702Y0110908D02*
X0257316Y0110908D01*
X0257244Y0109309D02*
X0254702Y0109309D01*
X0254115Y0107711D02*
X0257244Y0107711D01*
X0257244Y0106112D02*
X0245600Y0106112D01*
X0245600Y0104514D02*
X0257070Y0104514D01*
X0252863Y0108237D02*
X0252863Y0111800D01*
X0250737Y0111800D01*
X0250454Y0112506D02*
X0251020Y0112506D01*
X0251020Y0110908D02*
X0250454Y0110908D01*
X0250454Y0109309D02*
X0251020Y0109309D01*
X0251020Y0107711D02*
X0250454Y0107711D01*
X0250454Y0114105D02*
X0251020Y0114105D01*
X0251020Y0115703D02*
X0250454Y0115703D01*
X0250245Y0117302D02*
X0245716Y0117302D01*
X0245600Y0118900D02*
X0248898Y0118900D01*
X0248898Y0120499D02*
X0245600Y0120499D01*
X0245600Y0122097D02*
X0248898Y0122097D01*
X0248898Y0123696D02*
X0245600Y0123696D01*
X0245600Y0125294D02*
X0249045Y0125294D01*
X0252580Y0125294D02*
X0253146Y0125294D01*
X0253146Y0123696D02*
X0252580Y0123696D01*
X0252580Y0122097D02*
X0253146Y0122097D01*
X0253146Y0120499D02*
X0252580Y0120499D01*
X0252580Y0118900D02*
X0253146Y0118900D01*
X0253146Y0117302D02*
X0252580Y0117302D01*
X0254301Y0115703D02*
X0266468Y0115703D01*
X0266450Y0114105D02*
X0254702Y0114105D01*
X0255480Y0117302D02*
X0256354Y0117302D01*
X0261517Y0110908D02*
X0262083Y0110908D01*
X0262083Y0109309D02*
X0261517Y0109309D01*
X0261800Y0108237D02*
X0269300Y0108237D01*
X0268424Y0117302D02*
X0265120Y0117302D01*
X0265702Y0118900D02*
X0266826Y0118900D01*
X0265726Y0120499D02*
X0265702Y0120499D01*
X0256949Y0126893D02*
X0245600Y0126893D01*
X0245600Y0128491D02*
X0257100Y0128491D01*
X0256617Y0130090D02*
X0254974Y0130090D01*
X0254890Y0129945D02*
X0255127Y0130355D01*
X0255250Y0130813D01*
X0255250Y0134175D01*
X0251825Y0134175D01*
X0251825Y0134225D01*
X0251775Y0134225D01*
X0251775Y0139150D01*
X0249913Y0139150D01*
X0249455Y0139027D01*
X0249045Y0138790D01*
X0248710Y0138455D01*
X0248473Y0138045D01*
X0248350Y0137587D01*
X0248350Y0134225D01*
X0251775Y0134225D01*
X0251775Y0134175D01*
X0251825Y0134175D01*
X0251825Y0129250D01*
X0253687Y0129250D01*
X0254145Y0129373D01*
X0254555Y0129610D01*
X0254890Y0129945D01*
X0255250Y0131688D02*
X0256450Y0131688D01*
X0256450Y0133287D02*
X0255250Y0133287D01*
X0255250Y0134225D02*
X0255250Y0137587D01*
X0255127Y0138045D01*
X0254890Y0138455D01*
X0254555Y0138790D01*
X0254145Y0139027D01*
X0253687Y0139150D01*
X0251825Y0139150D01*
X0251825Y0134225D01*
X0255250Y0134225D01*
X0255250Y0134885D02*
X0256450Y0134885D01*
X0256450Y0136484D02*
X0255250Y0136484D01*
X0255106Y0138082D02*
X0256523Y0138082D01*
X0257621Y0139681D02*
X0245979Y0139681D01*
X0247077Y0138082D02*
X0248494Y0138082D01*
X0248350Y0136484D02*
X0247150Y0136484D01*
X0247150Y0134885D02*
X0248350Y0134885D01*
X0248350Y0134175D02*
X0248350Y0130813D01*
X0248473Y0130355D01*
X0248710Y0129945D01*
X0249045Y0129610D01*
X0249455Y0129373D01*
X0249913Y0129250D01*
X0251775Y0129250D01*
X0251775Y0134175D01*
X0248350Y0134175D01*
X0248350Y0133287D02*
X0247150Y0133287D01*
X0247150Y0131688D02*
X0248350Y0131688D01*
X0248626Y0130090D02*
X0246983Y0130090D01*
X0251775Y0130090D02*
X0251825Y0130090D01*
X0251775Y0131688D02*
X0251825Y0131688D01*
X0251775Y0133287D02*
X0251825Y0133287D01*
X0251775Y0134885D02*
X0251825Y0134885D01*
X0251775Y0136484D02*
X0251825Y0136484D01*
X0251775Y0138082D02*
X0251825Y0138082D01*
X0273100Y0138082D02*
X0305200Y0138082D01*
X0305200Y0136484D02*
X0273100Y0136484D01*
X0273100Y0134885D02*
X0305200Y0134885D01*
X0305200Y0133287D02*
X0273100Y0133287D01*
X0273100Y0131688D02*
X0305200Y0131688D01*
X0305200Y0130090D02*
X0273100Y0130090D01*
X0273100Y0139681D02*
X0305200Y0139681D01*
X0305200Y0141279D02*
X0273100Y0141279D01*
X0273100Y0142878D02*
X0305200Y0142878D01*
X0305200Y0144476D02*
X0273100Y0144476D01*
X0273100Y0146075D02*
X0305200Y0146075D01*
X0305200Y0147673D02*
X0273100Y0147673D01*
X0273100Y0149272D02*
X0305200Y0149272D01*
X0305200Y0150870D02*
X0273100Y0150870D01*
X0273100Y0152469D02*
X0305200Y0152469D01*
X0305200Y0154068D02*
X0273100Y0154068D01*
X0273100Y0155666D02*
X0305200Y0155666D01*
X0305200Y0157265D02*
X0273100Y0157265D01*
X0273100Y0158863D02*
X0299363Y0158863D01*
X0298241Y0160462D02*
X0273100Y0160462D01*
X0273100Y0162060D02*
X0298000Y0162060D01*
X0364436Y0226001D02*
X0366331Y0226001D01*
X0366331Y0227599D02*
X0366035Y0227599D01*
X0365757Y0269160D02*
X0366331Y0269160D01*
X0366331Y0273956D02*
X0366152Y0273956D01*
X0265533Y0235592D02*
X0021600Y0235592D01*
X0021600Y0237190D02*
X0263828Y0237190D01*
X0262123Y0238789D02*
X0021600Y0238789D01*
X0021600Y0240387D02*
X0260418Y0240387D01*
X0168740Y0241986D02*
X0021600Y0241986D01*
X0021600Y0243584D02*
X0168000Y0243584D01*
X0168000Y0245183D02*
X0021600Y0245183D01*
X0021600Y0246781D02*
X0168000Y0246781D01*
X0157964Y0249978D02*
X0155636Y0249978D01*
X0147964Y0249978D02*
X0145636Y0249978D01*
X0137964Y0249978D02*
X0135636Y0249978D01*
X0127964Y0249978D02*
X0125636Y0249978D01*
X0117964Y0249978D02*
X0115636Y0249978D01*
X0107964Y0249978D02*
X0107239Y0249978D01*
X0106907Y0267562D02*
X0106693Y0267562D01*
X0105098Y0269160D02*
X0108502Y0269160D01*
X0115098Y0269160D02*
X0118502Y0269160D01*
X0116907Y0267562D02*
X0116693Y0267562D01*
X0125098Y0269160D02*
X0128502Y0269160D01*
X0126907Y0267562D02*
X0126693Y0267562D01*
X0135098Y0269160D02*
X0138000Y0269160D01*
X0138000Y0270759D02*
X0021600Y0270759D01*
X0039950Y0271972D02*
X0039950Y0271972D01*
X0040335Y0272357D02*
X0045741Y0272357D01*
X0044793Y0273956D02*
X0041908Y0273956D01*
X0041889Y0273912D02*
X0041889Y0273912D01*
X0042361Y0275554D02*
X0044782Y0275554D01*
X0044782Y0277153D02*
X0042361Y0277153D01*
X0042361Y0278751D02*
X0044782Y0278751D01*
X0045139Y0280350D02*
X0042361Y0280350D01*
X0041635Y0281948D02*
X0046576Y0281948D01*
X0059672Y0272357D02*
X0059699Y0272357D01*
X0136693Y0267562D02*
X0136907Y0267562D01*
X0228400Y0096521D02*
X0229512Y0096521D01*
D37*
X0231800Y0101800D03*
X0231800Y0056800D03*
X0291800Y0049300D03*
X0196800Y0166800D03*
X0096800Y0131800D03*
X0076800Y0049300D03*
M02*
