G75*
%MOIN*%
%OFA0B0*%
%FSLAX25Y25*%
%IPPOS*%
%LPD*%
%AMOC8*
5,1,8,0,0,1.08239X$1,22.5*
%
%ADD10C,0.13398*%
%ADD11C,0.32296*%
%ADD12R,0.25800X0.04800*%
%ADD13C,0.07887*%
%ADD14C,0.08477*%
%ADD15R,0.17500X0.15800*%
%ADD16OC8,0.07400*%
%ADD17R,0.05131X0.06312*%
%ADD18R,0.06312X0.05131*%
%ADD19C,0.06800*%
D10*
X0029300Y0021800D03*
X0351800Y0021800D03*
X0351800Y0276800D03*
X0029300Y0276800D03*
D11*
X0026800Y0121800D03*
D12*
X0071800Y0121800D03*
X0071800Y0131800D03*
X0071800Y0141800D03*
X0071800Y0151800D03*
X0071800Y0161800D03*
X0071800Y0171800D03*
X0071800Y0181800D03*
X0131800Y0181800D03*
X0131800Y0171800D03*
X0131800Y0161800D03*
X0131800Y0151800D03*
X0131800Y0141800D03*
X0131800Y0131800D03*
X0131800Y0121800D03*
X0131800Y0111800D03*
X0131800Y0101800D03*
X0131800Y0091800D03*
X0131800Y0081800D03*
X0131800Y0071800D03*
X0071800Y0071800D03*
X0071800Y0081800D03*
X0071800Y0091800D03*
X0071800Y0101800D03*
X0071800Y0111800D03*
X0191800Y0111800D03*
X0191800Y0101800D03*
X0191800Y0091800D03*
X0191800Y0081800D03*
X0191800Y0071800D03*
X0251800Y0071800D03*
X0251800Y0081800D03*
X0251800Y0091800D03*
X0251800Y0101800D03*
X0251800Y0111800D03*
X0251800Y0121800D03*
X0251800Y0131800D03*
X0251800Y0141800D03*
X0251800Y0151800D03*
X0251800Y0161800D03*
X0251800Y0171800D03*
X0251800Y0181800D03*
X0301800Y0151800D03*
X0301800Y0141800D03*
X0301800Y0131800D03*
X0301800Y0121800D03*
X0301800Y0111800D03*
X0191800Y0121800D03*
X0191800Y0131800D03*
X0191800Y0141800D03*
X0191800Y0151800D03*
X0191800Y0161800D03*
X0191800Y0171800D03*
X0191800Y0181800D03*
X0256800Y0241800D03*
X0256800Y0251800D03*
X0106800Y0251800D03*
X0106800Y0241800D03*
D13*
X0131800Y0206800D03*
X0061800Y0206800D03*
X0201800Y0206800D03*
X0271800Y0206800D03*
X0271800Y0046800D03*
X0201800Y0046800D03*
X0131800Y0046800D03*
X0061800Y0046800D03*
D14*
X0049600Y0059000D03*
X0074000Y0059000D03*
X0074000Y0034600D03*
X0049600Y0034600D03*
X0119600Y0034600D03*
X0144000Y0034600D03*
X0144000Y0059000D03*
X0119600Y0059000D03*
X0189600Y0059000D03*
X0214000Y0059000D03*
X0214000Y0034600D03*
X0189600Y0034600D03*
X0259600Y0034600D03*
X0284000Y0034600D03*
X0284000Y0059000D03*
X0259600Y0059000D03*
X0259600Y0194600D03*
X0284000Y0194600D03*
X0284000Y0219000D03*
X0259600Y0219000D03*
X0214000Y0219000D03*
X0189600Y0219000D03*
X0189600Y0194600D03*
X0214000Y0194600D03*
X0144000Y0194600D03*
X0119600Y0194600D03*
X0119600Y0219000D03*
X0144000Y0219000D03*
X0074000Y0219000D03*
X0049600Y0219000D03*
X0049600Y0194600D03*
X0074000Y0194600D03*
D15*
X0156700Y0246800D03*
X0181800Y0246800D03*
D16*
X0301800Y0241800D03*
X0301800Y0251800D03*
X0301800Y0176800D03*
X0301800Y0166800D03*
X0301800Y0096800D03*
X0301800Y0086800D03*
D17*
X0307863Y0206800D03*
X0315737Y0206800D03*
X0285737Y0251800D03*
X0277863Y0251800D03*
D18*
X0301800Y0070737D03*
X0301800Y0062863D03*
D19*
X0322900Y0076000D02*
X0322900Y0082000D01*
X0340700Y0082000D02*
X0340700Y0076000D01*
X0340700Y0101600D02*
X0340700Y0107600D01*
X0322900Y0107600D02*
X0322900Y0101600D01*
X0322900Y0156000D02*
X0322900Y0162000D01*
X0340700Y0162000D02*
X0340700Y0156000D01*
X0340700Y0181600D02*
X0340700Y0187600D01*
X0322900Y0187600D02*
X0322900Y0181600D01*
M02*
